<svg xmlns="http://www.w3.org/2000/svg" viewBox="0 0 94.93 45.31"><defs><style>.cls-1{fill:#fff;}</style></defs><g id="图层_2" data-name="图层 2"><g id="图层_2-2" data-name="图层 2"><path class="cls-1" d="M25.24.91V44.39H15.33L9.45,24.63V44.39H0V.91H9.45l6.34,19.58V.91Z"/><path class="cls-1" d="M55.62,26.37c0,4.37-.11,7.46-.31,9.28A10.38,10.38,0,0,1,49,44.1a16,16,0,0,1-6.44,1.21,16.37,16.37,0,0,1-6.27-1.15,10.46,10.46,0,0,1-6.49-8.39,93.42,93.42,0,0,1-.32-9.4V18.93q0-6.55.31-9.28a10.37,10.37,0,0,1,6.32-8.44A16,16,0,0,1,42.54,0a16.37,16.37,0,0,1,6.27,1.14A10.5,10.5,0,0,1,55.3,9.53a93.56,93.56,0,0,1,.32,9.4ZM44.31,12.08A13.73,13.73,0,0,0,44,8.2a1.35,1.35,0,0,0-1.39-.84A1.54,1.54,0,0,0,41.24,8c-.32.46-.47,1.81-.47,4V32.39a19.69,19.69,0,0,0,.31,4.67,1.34,1.34,0,0,0,1.43.89,1.4,1.4,0,0,0,1.48-1,21.86,21.86,0,0,0,.32-4.86Z"/><path class="cls-1" d="M66.74,35.53v8.86h-8.2V35.53Z"/><path class="cls-1" d="M90.05,19.75a6.81,6.81,0,0,1,3.68,2.73q1.2,1.89,1.2,8.88a21.74,21.74,0,0,1-1.18,8,8.43,8.43,0,0,1-4.08,4.35,16.27,16.27,0,0,1-7.44,1.49,16,16,0,0,1-8.1-1.73,8.38,8.38,0,0,1-3.86-4.24c-.62-1.68-.93-4.58-.93-8.72V27.12H80.19v7.07a11.16,11.16,0,0,0,.34,3.58,1.45,1.45,0,0,0,1.49.77,1.61,1.61,0,0,0,1.66-1,18,18,0,0,0,.4-5v-3a8.76,8.76,0,0,0-.56-3.65,2.84,2.84,0,0,0-1.66-1.52,17.12,17.12,0,0,0-4.27-.41V17.62a21.59,21.59,0,0,0,4.78-.3A2.09,2.09,0,0,0,83.68,16a8.83,8.83,0,0,0,.4-3.11V10.5a6.24,6.24,0,0,0-.47-3,1.62,1.62,0,0,0-1.46-.72,1.58,1.58,0,0,0-1.54.76,8.06,8.06,0,0,0-.42,3.27v3.57H69.34V10.66q0-6.22,2.85-8.42t9-2.19q7.76,0,10.53,3t2.76,8.42a10.59,10.59,0,0,1-1,5.28A8.87,8.87,0,0,1,90.05,19.75Z"/></g></g></svg>