<svg xmlns="http://www.w3.org/2000/svg" viewBox="0 0 361 128"><defs><style>.cls-1{fill:#fff;}</style></defs><g id="图层_2" data-name="图层 2"><g id="图层_1-2" data-name="图层 1"><rect width="361" height="128"/><path class="cls-1" d="M9.46,11.41,12.89,20h-.81l-1-2.56H7L6,20H5.16l3.43-8.57Zm1.39,5.39-1.8-4.6H9L7.2,16.8Z"/><path class="cls-1" d="M17.27,11.41v.64H16.22a.83.83,0,0,0-.68.24,1.12,1.12,0,0,0-.22.77v.72h1.86v.62H15.32V20H14.6V14.4H13v-.62H14.6V13A1.6,1.6,0,0,1,15,11.86a1.46,1.46,0,0,1,1.17-.45Z"/><path class="cls-1" d="M19.58,13.78H21.2v.62H19.58v4.2a.92.92,0,0,0,.15.58.68.68,0,0,0,.54.17h.78V20h-.88a1.29,1.29,0,0,1-1-.38,1.47,1.47,0,0,1-.28-1V14.4H17.55v-.62h1.31V12.07l.72-.3Z"/><path class="cls-1" d="M27,14.6a4.45,4.45,0,0,1,.71,2.48h-5a2.91,2.91,0,0,0,.61,1.79,2,2,0,0,0,1.54.65,2.09,2.09,0,0,0,1.36-.44,2.39,2.39,0,0,0,.66-1.1h.74a2.93,2.93,0,0,1-.83,1.48,2.73,2.73,0,0,1-1.93.68,2.67,2.67,0,0,1-2.09-.88,3.46,3.46,0,0,1-.8-2.39,3.48,3.48,0,0,1,.76-2.29,2.57,2.57,0,0,1,2.1-1A2.54,2.54,0,0,1,27,14.6Zm-3.67.27a2.76,2.76,0,0,0-.65,1.63H27c-.12-1.51-.84-2.27-2.14-2.27A1.82,1.82,0,0,0,23.34,14.87Z"/><path class="cls-1" d="M32.38,13.74v.73a3.56,3.56,0,0,0-1-.13,1.56,1.56,0,0,0-1.35.74,2.7,2.7,0,0,0-.49,1.62V20h-.72v-6.2h.72V15a2.4,2.4,0,0,1,.69-.92,1.77,1.77,0,0,1,1.2-.43A2.38,2.38,0,0,1,32.38,13.74Z"/><path class="cls-1" d="M38.14,11.24V20h-.72V11.24Z"/><path class="cls-1" d="M44.78,14.59a3.46,3.46,0,0,1,.76,2.29,3.43,3.43,0,0,1-.76,2.28,2.95,2.95,0,0,1-4.39,0,3.48,3.48,0,0,1-.75-2.28,3.46,3.46,0,0,1,.76-2.29,2.94,2.94,0,0,1,4.38,0Zm-3.86.46a2.91,2.91,0,0,0-.55,1.83,2.9,2.9,0,0,0,.55,1.82,2,2,0,0,0,1.67.82,2,2,0,0,0,1.68-.82,3,3,0,0,0,.55-1.82,3,3,0,0,0-.55-1.83,2,2,0,0,0-1.68-.82A1.94,1.94,0,0,0,40.92,15.05Z"/><path class="cls-1" d="M51.72,14.59a3.51,3.51,0,0,1,.75,2.29,3.48,3.48,0,0,1-.75,2.28,2.95,2.95,0,0,1-4.39,0,3.43,3.43,0,0,1-.76-2.28,3.41,3.41,0,0,1,.77-2.29,2.67,2.67,0,0,1,2.18-1A2.72,2.72,0,0,1,51.72,14.59Zm-3.87.46a2.91,2.91,0,0,0-.55,1.83,2.9,2.9,0,0,0,.55,1.82,2.12,2.12,0,0,0,3.35,0,3,3,0,0,0,.55-1.82,3,3,0,0,0-.55-1.83,2.12,2.12,0,0,0-3.35,0Z"/><path class="cls-1" d="M54.47,11.24v5.67l3.44-3.13h1l-2.72,2.45,3,3.75h-1L55.65,16.7l-1.18,1.08V20h-.72V11.24Z"/><path class="cls-1" d="M61.08,11.72a.52.52,0,0,1,.18.42.61.61,0,0,1-.19.44.61.61,0,0,1-1-.44.55.55,0,0,1,.18-.42.57.57,0,0,1,.44-.18A.6.6,0,0,1,61.08,11.72ZM61,13.78V20h-.72v-6.2Z"/><path class="cls-1" d="M67.92,16.16V20H67.2V16.21q0-2-1.77-2a1.61,1.61,0,0,0-1.24.54,2.14,2.14,0,0,0-.59,1.46V20h-.72v-6.2h.72v1a2.34,2.34,0,0,1,.84-.87,2.14,2.14,0,0,1,1.17-.31Q67.92,13.61,67.92,16.16Z"/><path class="cls-1" d="M74.2,15V13.78h.72v5.74c0,2-.93,3-2.78,3A3,3,0,0,1,70.26,22a2.27,2.27,0,0,1-.79-1.49h.72a1.6,1.6,0,0,0,.57,1,2.16,2.16,0,0,0,1.38.38c1.37,0,2.06-.78,2.06-2.32V18.42A2.3,2.3,0,0,1,72,19.83a2.6,2.6,0,0,1-2.08-.92,3.29,3.29,0,0,1-.72-2.18,3.32,3.32,0,0,1,.72-2.19A2.57,2.57,0,0,1,72,13.61,2.29,2.29,0,0,1,74.2,15ZM70.47,15a2.73,2.73,0,0,0-.55,1.77,2.73,2.73,0,0,0,.52,1.72,1.87,1.87,0,0,0,1.62.76,1.93,1.93,0,0,0,1.6-.72,2.76,2.76,0,0,0,.54-1.76A2.79,2.79,0,0,0,73.66,15a2.09,2.09,0,0,0-3.19,0Z"/><path class="cls-1" d="M81.93,13.78h1.62v.62H81.93v4.2a.92.92,0,0,0,.15.58.68.68,0,0,0,.54.17h.78V20h-.88a1.29,1.29,0,0,1-1-.38,1.47,1.47,0,0,1-.28-1V14.4H79.9v-.62h1.31V12.07l.72-.3Z"/><path class="cls-1" d="M85.38,11.24V14.9a2.39,2.39,0,0,1,.86-1,2.18,2.18,0,0,1,1.18-.32,2.15,2.15,0,0,1,1.65.62,2.5,2.5,0,0,1,.6,1.79v4H89V16.11a2,2,0,0,0-.45-1.4,1.7,1.7,0,0,0-1.29-.48,1.64,1.64,0,0,0-1.3.62,2.25,2.25,0,0,0-.53,1.54V20h-.73V11.24Z"/><path class="cls-1" d="M94.69,13.74v.73a3.56,3.56,0,0,0-1-.13,1.54,1.54,0,0,0-1.34.74,2.64,2.64,0,0,0-.49,1.62V20h-.72v-6.2h.72V15a2.29,2.29,0,0,1,.68-.92,1.79,1.79,0,0,1,1.2-.43A2.38,2.38,0,0,1,94.69,13.74Z"/><path class="cls-1" d="M100.41,14.59a3.46,3.46,0,0,1,.76,2.29,3.43,3.43,0,0,1-.76,2.28,2.95,2.95,0,0,1-4.39,0,3.48,3.48,0,0,1-.75-2.28A3.46,3.46,0,0,1,96,14.59a2.94,2.94,0,0,1,4.38,0Zm-3.86.46A2.91,2.91,0,0,0,96,16.88a2.9,2.9,0,0,0,.55,1.82,2.12,2.12,0,0,0,3.35,0,3,3,0,0,0,.55-1.82,3,3,0,0,0-.55-1.83,2.12,2.12,0,0,0-3.35,0Z"/><path class="cls-1" d="M103.16,13.78v3.78a2.19,2.19,0,0,0,.41,1.46,1.68,1.68,0,0,0,1.33.5,1.74,1.74,0,0,0,1.26-.55,2.21,2.21,0,0,0,.61-1.43V13.78h.72V20h-.72V18.93a2.27,2.27,0,0,1-2.06,1.21c-1.51,0-2.27-.85-2.27-2.54V13.78Z"/><path class="cls-1" d="M113.78,15V13.78h.72v5.74c0,2-.94,3-2.78,3a3,3,0,0,1-1.89-.53A2.31,2.31,0,0,1,109,20.5h.72a1.65,1.65,0,0,0,.58,1,2.16,2.16,0,0,0,1.38.38c1.36,0,2.06-.78,2.06-2.32V18.42a2.33,2.33,0,0,1-2.22,1.41,2.57,2.57,0,0,1-2.07-.92,3.29,3.29,0,0,1-.72-2.18,3.32,3.32,0,0,1,.72-2.19,2.55,2.55,0,0,1,2.07-.93A2.31,2.31,0,0,1,113.78,15ZM110.05,15a2.73,2.73,0,0,0-.55,1.77,2.79,2.79,0,0,0,.51,1.72,1.9,1.9,0,0,0,1.62.76,1.94,1.94,0,0,0,1.61-.72,2.76,2.76,0,0,0,.54-1.76,2.79,2.79,0,0,0-.54-1.77,2.09,2.09,0,0,0-3.19,0Z"/><path class="cls-1" d="M116.75,11.24V14.9a2.39,2.39,0,0,1,.86-1,2.43,2.43,0,0,1,2.83.3A2.5,2.5,0,0,1,121,16v4h-.72V16.11a2,2,0,0,0-.46-1.4,1.69,1.69,0,0,0-1.28-.48,1.66,1.66,0,0,0-1.31.62,2.25,2.25,0,0,0-.52,1.54V20H116V11.24Z"/><path class="cls-1" d="M131.46,14.59a3.51,3.51,0,0,1,.75,2.29,3.48,3.48,0,0,1-.75,2.28,2.76,2.76,0,0,1-2.2,1,2.73,2.73,0,0,1-2.19-1,3.43,3.43,0,0,1-.76-2.28,3.41,3.41,0,0,1,.77-2.29,2.67,2.67,0,0,1,2.18-1A2.73,2.73,0,0,1,131.46,14.59Zm-3.87.46a2.91,2.91,0,0,0-.55,1.83,2.9,2.9,0,0,0,.55,1.82,2.12,2.12,0,0,0,3.35,0,3,3,0,0,0,.55-1.82,3,3,0,0,0-.55-1.83,2.12,2.12,0,0,0-3.35,0Z"/><path class="cls-1" d="M135,13.78h1.61v.62H135v4.2a.92.92,0,0,0,.14.58.71.71,0,0,0,.54.17h.78V20h-.88a1.31,1.31,0,0,1-1-.38,1.48,1.48,0,0,1-.27-1V14.4H133v-.62h1.32V12.07l.72-.3Z"/><path class="cls-1" d="M138.43,11.24V14.9a2.47,2.47,0,0,1,.86-1,2.18,2.18,0,0,1,1.18-.32,2.13,2.13,0,0,1,1.65.62,2.5,2.5,0,0,1,.6,1.79v4H142V16.11a2,2,0,0,0-.45-1.4,1.69,1.69,0,0,0-1.28-.48,1.65,1.65,0,0,0-1.31.62,2.25,2.25,0,0,0-.53,1.54V20h-.73V11.24Z"/><path class="cls-1" d="M149,14.6a4.45,4.45,0,0,1,.71,2.48h-5a2.91,2.91,0,0,0,.61,1.79,2,2,0,0,0,1.54.65,2.14,2.14,0,0,0,1.37-.44,2.57,2.57,0,0,0,.66-1.1h.73a2.93,2.93,0,0,1-.83,1.48,2.73,2.73,0,0,1-1.93.68,2.67,2.67,0,0,1-2.09-.88,3.46,3.46,0,0,1-.8-2.39,3.43,3.43,0,0,1,.77-2.29,2.85,2.85,0,0,1,4.3,0Zm-3.67.27a2.76,2.76,0,0,0-.65,1.63h4.27c-.12-1.51-.84-2.27-2.14-2.27A1.83,1.83,0,0,0,145.28,14.87Z"/><path class="cls-1" d="M154.32,13.74v.73a3.56,3.56,0,0,0-.95-.13,1.54,1.54,0,0,0-1.34.74,2.64,2.64,0,0,0-.5,1.62V20h-.72v-6.2h.72V15a2.4,2.4,0,0,1,.69-.92,1.77,1.77,0,0,1,1.2-.43A2.38,2.38,0,0,1,154.32,13.74Z"/><path class="cls-1" d="M160.28,11.72a.52.52,0,0,1,.18.42.61.61,0,0,1-.19.44.63.63,0,0,1-.42.16.61.61,0,0,1-.43-.16.6.6,0,0,1-.18-.44.52.52,0,0,1,.18-.42.55.55,0,0,1,.43-.18A.58.58,0,0,1,160.28,11.72Zm-.07,2.06V20h-.72v-6.2Z"/><path class="cls-1" d="M167.12,16.16V20h-.72V16.21c0-1.32-.59-2-1.76-2a1.63,1.63,0,0,0-1.25.54,2.19,2.19,0,0,0-.59,1.46V20h-.72v-6.2h.72v1a2.42,2.42,0,0,1,.84-.87,2.17,2.17,0,0,1,1.18-.31C166.35,13.61,167.12,14.46,167.12,16.16Z"/><path class="cls-1" d="M174,11.24V20h-.68V18.75a2.22,2.22,0,0,1-2.17,1.39,2.5,2.5,0,0,1-2.1-1,3.67,3.67,0,0,1-.69-2.29,3.63,3.63,0,0,1,.69-2.27,2.42,2.42,0,0,1,2.06-1,2.27,2.27,0,0,1,2.17,1.47V11.24ZM169.64,15a3,3,0,0,0-.51,1.86,3.11,3.11,0,0,0,.5,1.87,2,2,0,0,0,3.19,0,3,3,0,0,0,.52-1.8v-.14a3,3,0,0,0-.56-1.86,1.79,1.79,0,0,0-1.51-.74A1.88,1.88,0,0,0,169.64,15Z"/><path class="cls-1" d="M176.7,11.72a.52.52,0,0,1,.18.42.61.61,0,0,1-.19.44.66.66,0,0,1-.86,0,.6.6,0,0,1-.18-.44.52.52,0,0,1,.18-.42.57.57,0,0,1,.44-.18A.6.6,0,0,1,176.7,11.72Zm-.07,2.06V20h-.72v-6.2Z"/><path class="cls-1" d="M178.59,13.78l2,5.28,1.94-5.28h.81L180.92,20h-.74l-2.38-6.2Z"/><path class="cls-1" d="M185.27,11.72a.52.52,0,0,1,.18.42.61.61,0,0,1-.62.6.61.61,0,0,1-.43-.16.6.6,0,0,1-.18-.44.52.52,0,0,1,.18-.42.55.55,0,0,1,.43-.18A.6.6,0,0,1,185.27,11.72Zm-.08,2.06V20h-.72v-6.2Z"/><path class="cls-1" d="M192.46,11.24V20h-.68V18.75a2.22,2.22,0,0,1-2.17,1.39,2.5,2.5,0,0,1-2.1-1,3.66,3.66,0,0,1-.68-2.29,3.62,3.62,0,0,1,.68-2.27,2.42,2.42,0,0,1,2.06-1,2.26,2.26,0,0,1,2.17,1.47V11.24ZM188.07,15a3.06,3.06,0,0,0-.51,1.86,3.19,3.19,0,0,0,.5,1.87,2,2,0,0,0,3.19,0,3,3,0,0,0,.52-1.8v-.14a3,3,0,0,0-.55-1.86,1.82,1.82,0,0,0-1.51-.74A1.91,1.91,0,0,0,188.07,15Z"/><path class="cls-1" d="M194.7,13.78v3.78a2.19,2.19,0,0,0,.41,1.46,1.66,1.66,0,0,0,1.33.5A1.74,1.74,0,0,0,197.7,19a2.21,2.21,0,0,0,.61-1.43V13.78H199V20h-.72V18.93a2.28,2.28,0,0,1-2.06,1.21c-1.52,0-2.27-.85-2.27-2.54V13.78Z"/><path class="cls-1" d="M205.1,14.31a2.4,2.4,0,0,1,.55,1.67v4H205V18.79a3.14,3.14,0,0,1-1,.91,3.19,3.19,0,0,1-1.63.44,2.21,2.21,0,0,1-1.45-.45,1.49,1.49,0,0,1-.59-1.24,1.69,1.69,0,0,1,.88-1.58,4.05,4.05,0,0,1,2.17-.49l1.58,0V16a1.57,1.57,0,0,0-1.8-1.76,2.12,2.12,0,0,0-1.23.31,1.52,1.52,0,0,0-.69,1l-.7,0a2,2,0,0,1,.93-1.42,3,3,0,0,1,1.73-.44A2.43,2.43,0,0,1,205.1,14.31Zm-1.72,2.63c-1.57,0-2.35.52-2.35,1.5a1,1,0,0,0,.4.8,1.64,1.64,0,0,0,1,.32,2.59,2.59,0,0,0,1.71-.65,1.78,1.78,0,0,0,.74-1.35v-.64Z"/><path class="cls-1" d="M208.11,11.24V20h-.72V11.24Z"/><path class="cls-1" d="M210.81,11.41l-.07,2.94h-.61l-.07-2.94Z"/><path class="cls-1" d="M217.11,15.51h-.71a1.46,1.46,0,0,0-.51-.94,2,2,0,0,0-1.26-.34,1.92,1.92,0,0,0-1.12.28.82.82,0,0,0,.12,1.5,8.19,8.19,0,0,0,1.31.43,6.28,6.28,0,0,1,1.61.57,1.41,1.41,0,0,1,.74,1.25c0,1.25-.84,1.88-2.52,1.88s-2.46-.7-2.6-2.12h.71a1.7,1.7,0,0,0,.57,1.18,2.2,2.2,0,0,0,1.3.32c1.2,0,1.8-.41,1.8-1.22a1,1,0,0,0-.61-.87,9.4,9.4,0,0,0-1.38-.43,5.89,5.89,0,0,1-1.51-.55,1.32,1.32,0,0,1-.71-1.19,1.38,1.38,0,0,1,.67-1.21,2.79,2.79,0,0,1,1.63-.44C216.1,13.61,216.93,14.24,217.11,15.51Z"/><path class="cls-1" d="M227,14.31a2.4,2.4,0,0,1,.55,1.67v4h-.68V18.79a3.14,3.14,0,0,1-1,.91,3.19,3.19,0,0,1-1.63.44,2.21,2.21,0,0,1-1.45-.45,1.52,1.52,0,0,1-.59-1.24,1.69,1.69,0,0,1,.88-1.58,4.05,4.05,0,0,1,2.17-.49l1.58,0V16a1.57,1.57,0,0,0-1.8-1.76,2.12,2.12,0,0,0-1.23.31,1.52,1.52,0,0,0-.69,1l-.7,0a2,2,0,0,1,.93-1.42,3,3,0,0,1,1.73-.44A2.43,2.43,0,0,1,227,14.31Zm-1.72,2.63c-1.57,0-2.35.52-2.35,1.5a1,1,0,0,0,.4.8,1.65,1.65,0,0,0,1.06.32,2.59,2.59,0,0,0,1.7-.65,1.78,1.78,0,0,0,.74-1.35v-.64Z"/><path class="cls-1" d="M234.1,16.16V20h-.72V16.21c0-1.32-.58-2-1.76-2a1.64,1.64,0,0,0-1.25.54,2.13,2.13,0,0,0-.58,1.46V20h-.72v-6.2h.72v1a2.34,2.34,0,0,1,.84-.87,2.12,2.12,0,0,1,1.17-.31C233.34,13.61,234.1,14.46,234.1,16.16Z"/><path class="cls-1" d="M240.2,15.51h-.71a1.46,1.46,0,0,0-.51-.94,2,2,0,0,0-1.26-.34,1.92,1.92,0,0,0-1.12.28.84.84,0,0,0-.43.74.87.87,0,0,0,.55.76,7.84,7.84,0,0,0,1.31.43,6.59,6.59,0,0,1,1.61.57,1.41,1.41,0,0,1,.74,1.25c0,1.25-.84,1.88-2.52,1.88s-2.46-.7-2.6-2.12H236a1.7,1.7,0,0,0,.57,1.18,2.2,2.2,0,0,0,1.3.32c1.2,0,1.8-.41,1.8-1.22a1,1,0,0,0-.62-.87,9.13,9.13,0,0,0-1.37-.43,6.16,6.16,0,0,1-1.52-.55,1.31,1.31,0,0,1-.7-1.19,1.38,1.38,0,0,1,.67-1.21,2.79,2.79,0,0,1,1.63-.44C239.19,13.61,240,14.24,240.2,15.51Z"/><path class="cls-1" d="M241.64,13.78l1.68,5.27,1.56-5.27h.7l1.56,5.27,1.69-5.27h.79L247.5,20h-.7l-1.56-5.27L243.66,20H243l-2.13-6.2Z"/><path class="cls-1" d="M255.15,14.6a4.45,4.45,0,0,1,.71,2.48h-5a2.91,2.91,0,0,0,.61,1.79,2,2,0,0,0,1.54.65,2.14,2.14,0,0,0,1.37-.44A2.57,2.57,0,0,0,255,18h.73a2.93,2.93,0,0,1-.83,1.48,2.73,2.73,0,0,1-1.93.68,2.67,2.67,0,0,1-2.09-.88,3.46,3.46,0,0,1-.8-2.39,3.43,3.43,0,0,1,.77-2.29,2.85,2.85,0,0,1,4.3,0Zm-3.67.27a2.76,2.76,0,0,0-.65,1.63h4.27c-.12-1.51-.84-2.27-2.14-2.27A1.83,1.83,0,0,0,251.48,14.87Z"/><path class="cls-1" d="M260.52,13.74v.73a3.56,3.56,0,0,0-.95-.13,1.54,1.54,0,0,0-1.34.74,2.64,2.64,0,0,0-.5,1.62V20H257v-6.2h.71V15a2.4,2.4,0,0,1,.69-.92,1.77,1.77,0,0,1,1.2-.43A2.38,2.38,0,0,1,260.52,13.74Z"/><path class="cls-1" d="M265.92,15.51h-.71a1.43,1.43,0,0,0-.52-.94,2,2,0,0,0-1.26-.34,1.91,1.91,0,0,0-1.11.28.84.84,0,0,0-.43.74.87.87,0,0,0,.55.76,7.84,7.84,0,0,0,1.31.43,6.32,6.32,0,0,1,1.6.57,1.42,1.42,0,0,1,.75,1.25c0,1.25-.84,1.88-2.52,1.88s-2.46-.7-2.6-2.12h.7a1.75,1.75,0,0,0,.58,1.18,2.19,2.19,0,0,0,1.29.32c1.2,0,1.8-.41,1.8-1.22a1,1,0,0,0-.61-.87,9,9,0,0,0-1.38-.43,6.05,6.05,0,0,1-1.51-.55,1.32,1.32,0,0,1-.71-1.19,1.4,1.4,0,0,1,.67-1.21,2.85,2.85,0,0,1,1.64-.44C264.91,13.61,265.74,14.24,265.92,15.51Z"/><path class="cls-1" d="M268.61,19.06a1.36,1.36,0,0,1,.19.75,1.93,1.93,0,0,1-.42,1.23,2.06,2.06,0,0,1-1.09.69v-.48a1.37,1.37,0,0,0,.72-.51,1.2,1.2,0,0,0,.24-.75,1.17,1.17,0,0,1-.24,0,.6.6,0,0,1-.44-.18.57.57,0,0,1-.17-.43.57.57,0,0,1,.64-.62A.68.68,0,0,1,268.61,19.06Z"/><path class="cls-1" d="M279.74,11.24V20h-.68V18.75a2.23,2.23,0,0,1-2.17,1.39,2.5,2.5,0,0,1-2.1-1,3.67,3.67,0,0,1-.69-2.29,3.63,3.63,0,0,1,.69-2.27,2.41,2.41,0,0,1,2.06-1A2.28,2.28,0,0,1,279,15.08V11.24ZM275.35,15a3,3,0,0,0-.52,1.86,3.12,3.12,0,0,0,.51,1.87,2,2,0,0,0,3.19,0A3,3,0,0,0,279,17v-.14a3,3,0,0,0-.55-1.86,1.8,1.8,0,0,0-1.51-.74A1.88,1.88,0,0,0,275.35,15Z"/><path class="cls-1" d="M286.16,14.59a3.51,3.51,0,0,1,.76,2.29,3.48,3.48,0,0,1-.76,2.28,2.95,2.95,0,0,1-4.39,0,3.48,3.48,0,0,1-.75-2.28,3.46,3.46,0,0,1,.76-2.29,2.94,2.94,0,0,1,4.38,0Zm-3.86.46a2.91,2.91,0,0,0-.55,1.83,2.9,2.9,0,0,0,.55,1.82,2,2,0,0,0,1.67.82,2,2,0,0,0,1.68-.82,3.07,3.07,0,0,0,.55-1.82,3,3,0,0,0-.55-1.83,2,2,0,0,0-1.68-.82A1.94,1.94,0,0,0,282.3,15.05Z"/><path class="cls-1" d="M292.28,13.78l2,5.16,2-5.16h.79l-3.41,8.57h-.78l1-2.53-2.46-6Z"/><path class="cls-1" d="M302.83,14.59a3.51,3.51,0,0,1,.75,2.29,3.48,3.48,0,0,1-.75,2.28,2.95,2.95,0,0,1-4.39,0,3.48,3.48,0,0,1-.76-2.28,3.46,3.46,0,0,1,.77-2.29,2.67,2.67,0,0,1,2.18-1A2.72,2.72,0,0,1,302.83,14.59Zm-3.86.46a2.85,2.85,0,0,0-.56,1.83A2.84,2.84,0,0,0,299,18.7a2,2,0,0,0,1.66.82,2,2,0,0,0,1.68-.82,3,3,0,0,0,.56-1.82,3,3,0,0,0-.56-1.83,2,2,0,0,0-1.68-.82A1.92,1.92,0,0,0,299,15.05Z"/><path class="cls-1" d="M305.58,13.78v3.78A2.19,2.19,0,0,0,306,19a1.66,1.66,0,0,0,1.33.5,1.74,1.74,0,0,0,1.26-.55,2.21,2.21,0,0,0,.61-1.43V13.78h.72V20h-.72V18.93a2.28,2.28,0,0,1-2.07,1.21c-1.51,0-2.26-.85-2.26-2.54V13.78Z"/><path class="cls-1" d="M320,15.51h-.71a1.46,1.46,0,0,0-.51-.94,2,2,0,0,0-1.26-.34,1.92,1.92,0,0,0-1.12.28.82.82,0,0,0,.12,1.5,7.84,7.84,0,0,0,1.31.43,6.43,6.43,0,0,1,1.61.57,1.41,1.41,0,0,1,.74,1.25c0,1.25-.84,1.88-2.52,1.88s-2.46-.7-2.6-2.12h.71a1.7,1.7,0,0,0,.57,1.18,2.2,2.2,0,0,0,1.3.32c1.2,0,1.8-.41,1.8-1.22a1,1,0,0,0-.61-.87,9.84,9.84,0,0,0-1.38-.43,5.89,5.89,0,0,1-1.51-.55,1.32,1.32,0,0,1-.71-1.19,1.38,1.38,0,0,1,.67-1.21,2.79,2.79,0,0,1,1.63-.44C319,13.61,319.82,14.24,320,15.51Z"/><path class="cls-1" d="M322.83,13.78h1.62v.62h-1.62v4.2a.92.92,0,0,0,.15.58.68.68,0,0,0,.54.17h.78V20h-.88a1.29,1.29,0,0,1-1-.38,1.48,1.48,0,0,1-.27-1V14.4h-1.33v-.62h1.33V12.07l.71-.3Z"/><path class="cls-1" d="M326.7,11.72a.52.52,0,0,1,.18.42.61.61,0,0,1-.19.44.63.63,0,0,1-.42.16.64.64,0,0,1-.44-.16.6.6,0,0,1-.18-.44.52.52,0,0,1,.18-.42.57.57,0,0,1,.44-.18A.58.58,0,0,1,326.7,11.72Zm-.07,2.06V20h-.72v-6.2Z"/><path class="cls-1" d="M329.45,11.24V20h-.72V11.24Z"/><path class="cls-1" d="M332.13,11.24V20h-.72V11.24Z"/><path class="cls-1" d="M6.64,27.24v3.84a2.25,2.25,0,0,1,2.17-1.47,2.43,2.43,0,0,1,2.06,1,3.62,3.62,0,0,1,.68,2.27,3.66,3.66,0,0,1-.68,2.29,2.5,2.5,0,0,1-2.09,1A2.21,2.21,0,0,1,6.6,34.75V36H5.92V27.24ZM7.16,31a2.94,2.94,0,0,0-.55,1.86V33a2.89,2.89,0,0,0,.52,1.8,1.81,1.81,0,0,0,1.57.77,1.87,1.87,0,0,0,1.62-.79,3.19,3.19,0,0,0,.5-1.87A3.13,3.13,0,0,0,10.31,31a1.9,1.9,0,0,0-1.63-.79A1.8,1.8,0,0,0,7.16,31Z"/><path class="cls-1" d="M17.54,30.6a4.45,4.45,0,0,1,.71,2.48h-5a2.91,2.91,0,0,0,.61,1.79,2,2,0,0,0,1.54.65,2.14,2.14,0,0,0,1.37-.44,2.47,2.47,0,0,0,.66-1.1h.73a2.93,2.93,0,0,1-.83,1.48,2.73,2.73,0,0,1-1.93.68,2.67,2.67,0,0,1-2.09-.88,3.88,3.88,0,0,1,0-4.68,2.56,2.56,0,0,1,2.1-1A2.54,2.54,0,0,1,17.54,30.6Zm-3.67.27a2.69,2.69,0,0,0-.64,1.63h4.26c-.12-1.51-.84-2.27-2.14-2.27A1.83,1.83,0,0,0,13.87,30.87Z"/><path class="cls-1" d="M20.35,27.24V36h-.72V27.24Z"/><path class="cls-1" d="M23.24,27.72a.52.52,0,0,1,.18.42.61.61,0,0,1-.19.44.63.63,0,0,1-.42.16.61.61,0,0,1-.43-.16.6.6,0,0,1-.18-.44.52.52,0,0,1,.18-.42.55.55,0,0,1,.43-.18A.58.58,0,0,1,23.24,27.72Zm-.07,2.06V36h-.72v-6.2Z"/><path class="cls-1" d="M29.76,30.6a4.45,4.45,0,0,1,.71,2.48h-5A2.91,2.91,0,0,0,26,34.87a2,2,0,0,0,1.54.65,2.09,2.09,0,0,0,1.36-.44A2.39,2.39,0,0,0,29.6,34h.73a2.92,2.92,0,0,1-.82,1.48,2.74,2.74,0,0,1-1.93.68,2.65,2.65,0,0,1-2.09-.88,3.9,3.9,0,0,1,0-4.68,2.57,2.57,0,0,1,2.1-1A2.54,2.54,0,0,1,29.76,30.6Zm-3.67.27a2.76,2.76,0,0,0-.65,1.63h4.27c-.12-1.51-.84-2.27-2.15-2.27A1.81,1.81,0,0,0,26.09,30.87Z"/><path class="cls-1" d="M31.72,29.78l2,5.28,1.94-5.28h.81L34,36H33.3l-2.37-6.2Z"/><path class="cls-1" d="M42,30.6a4.45,4.45,0,0,1,.71,2.48h-5a2.91,2.91,0,0,0,.61,1.79,2,2,0,0,0,1.54.65,2.14,2.14,0,0,0,1.37-.44A2.57,2.57,0,0,0,41.8,34h.73a2.93,2.93,0,0,1-.83,1.48,2.73,2.73,0,0,1-1.93.68,2.67,2.67,0,0,1-2.09-.88,3.88,3.88,0,0,1,0-4.68,2.85,2.85,0,0,1,4.3,0Zm-3.67.27a2.76,2.76,0,0,0-.65,1.63H41.9c-.12-1.51-.84-2.27-2.14-2.27A1.82,1.82,0,0,0,38.28,30.87Z"/><path class="cls-1" d="M49,27.72a.52.52,0,0,1,.18.42.61.61,0,0,1-.19.44.63.63,0,0,1-.42.16.61.61,0,0,1-.43-.16.6.6,0,0,1-.18-.44.52.52,0,0,1,.18-.42.55.55,0,0,1,.43-.18A.58.58,0,0,1,49,27.72Zm-.07,2.06V36h-.72v-6.2Z"/><path class="cls-1" d="M55.8,32.16V36h-.72V32.21c0-1.32-.59-2-1.76-2a1.61,1.61,0,0,0-1.25.54,2.19,2.19,0,0,0-.59,1.46V36h-.72v-6.2h.72v1a2.42,2.42,0,0,1,.84-.87,2.15,2.15,0,0,1,1.18-.31C55,29.61,55.8,30.46,55.8,32.16Z"/><path class="cls-1" d="M61.41,29.78l2,5.16,2-5.16h.79l-3.42,8.57H62l1-2.53-2.46-6Z"/><path class="cls-1" d="M72,30.59a3.82,3.82,0,0,1,0,4.57,2.95,2.95,0,0,1-4.39,0,3.84,3.84,0,0,1,0-4.57,2.94,2.94,0,0,1,4.38,0Zm-3.86.46a3.3,3.3,0,0,0,0,3.65,2,2,0,0,0,1.67.82,2,2,0,0,0,1.68-.82A3,3,0,0,0,72,32.88a3,3,0,0,0-.55-1.83,2,2,0,0,0-1.68-.82A1.94,1.94,0,0,0,68.09,31.05Z"/><path class="cls-1" d="M74.7,29.78v3.78A2.19,2.19,0,0,0,75.11,35a1.68,1.68,0,0,0,1.33.5A1.74,1.74,0,0,0,77.7,35a2.21,2.21,0,0,0,.61-1.43V29.78H79V36h-.72v-1a2.27,2.27,0,0,1-2.06,1.21c-1.51,0-2.27-.85-2.27-2.54V29.78Z"/><path class="cls-1" d="M84.05,29.74v.73a3.56,3.56,0,0,0-1-.13,1.54,1.54,0,0,0-1.34.74,2.64,2.64,0,0,0-.49,1.62V36h-.72v-6.2h.72V31A2.29,2.29,0,0,1,82,30a1.77,1.77,0,0,1,1.2-.43A2.38,2.38,0,0,1,84.05,29.74Z"/><path class="cls-1" d="M89.45,31.51h-.71a1.43,1.43,0,0,0-.52-.94,2.43,2.43,0,0,0-2.37-.06.84.84,0,0,0-.43.74A.87.87,0,0,0,86,32a7.84,7.84,0,0,0,1.31.43,6.32,6.32,0,0,1,1.6.57,1.4,1.4,0,0,1,.75,1.25c0,1.25-.84,1.88-2.52,1.88s-2.46-.7-2.6-2.12h.7a1.75,1.75,0,0,0,.58,1.18,2.2,2.2,0,0,0,1.3.32c1.19,0,1.79-.41,1.79-1.22a1,1,0,0,0-.61-.87A9,9,0,0,0,86.89,33a6.05,6.05,0,0,1-1.51-.55,1.32,1.32,0,0,1-.71-1.19,1.39,1.39,0,0,1,.68-1.21A2.79,2.79,0,0,1,87,29.61C88.44,29.61,89.27,30.24,89.45,31.51Z"/><path class="cls-1" d="M95.08,27.89a2.18,2.18,0,0,1,.64,1.66,2.23,2.23,0,0,1-.44,1.35c-.14.17-.46.47-1,.93a2.45,2.45,0,0,0-.61.68,1.74,1.74,0,0,0-.25.92v.35h-.73v-.35a2.18,2.18,0,0,1,.21-1,4.34,4.34,0,0,1,1.11-1.3c.27-.27.46-.46.56-.58a1.75,1.75,0,0,0-.07-2.24,1.8,1.8,0,0,0-1.32-.46,1.68,1.68,0,0,0-1.44.64,2.43,2.43,0,0,0-.44,1.5h-.72a3,3,0,0,1,.67-2,2.45,2.45,0,0,1,2-.82A2.51,2.51,0,0,1,95.08,27.89Zm-1.54,7a.57.57,0,0,1,.18.44.6.6,0,0,1-.18.43.61.61,0,0,1-.43.17.6.6,0,0,1-.42-1,.53.53,0,0,1,.42-.16A.56.56,0,0,1,93.54,34.94Z"/><path class="cls-1" d="M104.82,27.41a3,3,0,0,1,2,.6,2.18,2.18,0,0,1,.73,1.75,2.21,2.21,0,0,1-.4,1.31,2.07,2.07,0,0,1-1.22.76v0a1.67,1.67,0,0,1,1.44,1.58l.12,1.29A2.45,2.45,0,0,0,107.9,36h-.8a2.79,2.79,0,0,1-.34-1.17l-.1-1.17a1.48,1.48,0,0,0-.59-1.14,2.27,2.27,0,0,0-1.31-.33h-2.83V36h-.73V27.41Zm-2.89,4.12h2.82a2.27,2.27,0,0,0,1.56-.5,1.62,1.62,0,0,0,.5-1.24,1.64,1.64,0,0,0-.49-1.29,2.33,2.33,0,0,0-1.58-.44h-2.81Z"/><path class="cls-1" d="M113.77,30.6a4.45,4.45,0,0,1,.71,2.48h-5a2.91,2.91,0,0,0,.61,1.79,2,2,0,0,0,1.54.65,2.14,2.14,0,0,0,1.37-.44,2.57,2.57,0,0,0,.66-1.1h.73a2.93,2.93,0,0,1-.83,1.48,2.73,2.73,0,0,1-1.93.68,2.67,2.67,0,0,1-2.09-.88,3.88,3.88,0,0,1,0-4.68,2.85,2.85,0,0,1,4.3,0Zm-3.67.27a2.76,2.76,0,0,0-.65,1.63h4.27c-.12-1.51-.84-2.27-2.14-2.27A1.82,1.82,0,0,0,110.1,30.87Z"/><path class="cls-1" d="M115.73,29.78l2,5.28,1.94-5.28h.8L118.06,36h-.75l-2.37-6.2Z"/><path class="cls-1" d="M122.4,27.72a.52.52,0,0,1,.18.42.61.61,0,0,1-.19.44.63.63,0,0,1-.42.16.61.61,0,0,1-.43-.16.6.6,0,0,1-.18-.44.52.52,0,0,1,.18-.42.55.55,0,0,1,.43-.18A.58.58,0,0,1,122.4,27.72Zm-.07,2.06V36h-.72v-6.2Z"/><path class="cls-1" d="M128.92,30.6a4.37,4.37,0,0,1,.7,2.48h-5a2.85,2.85,0,0,0,.61,1.79,1.94,1.94,0,0,0,1.53.65,2.12,2.12,0,0,0,1.37-.44,2.47,2.47,0,0,0,.66-1.1h.73a2.86,2.86,0,0,1-.83,1.48,2.73,2.73,0,0,1-1.93.68,2.64,2.64,0,0,1-2.08-.88,3.86,3.86,0,0,1,0-4.68,2.86,2.86,0,0,1,4.31,0Zm-3.67.27a2.7,2.7,0,0,0-.65,1.63h4.27c-.12-1.51-.84-2.27-2.15-2.27A1.81,1.81,0,0,0,125.25,30.87Z"/><path class="cls-1" d="M130.89,29.78l1.68,5.27,1.55-5.27h.7l1.56,5.27,1.69-5.27h.79L136.74,36H136l-1.56-5.27L132.9,36h-.68l-2.14-6.2Z"/><path class="cls-1" d="M140.83,27.72a.52.52,0,0,1,.18.42.61.61,0,0,1-.19.44.63.63,0,0,1-.42.16.61.61,0,0,1-.43-.16.6.6,0,0,1-.18-.44.52.52,0,0,1,.18-.42.55.55,0,0,1,.43-.18A.58.58,0,0,1,140.83,27.72Zm-.07,2.06V36H140v-6.2Z"/><path class="cls-1" d="M147.67,32.16V36H147V32.21c0-1.32-.59-2-1.76-2a1.64,1.64,0,0,0-1.25.54,2.19,2.19,0,0,0-.59,1.46V36h-.71v-6.2h.71v1a2.5,2.5,0,0,1,.84-.87,2.17,2.17,0,0,1,1.18-.31C146.9,29.61,147.67,30.46,147.67,32.16Z"/><path class="cls-1" d="M154,31V29.78h.72v5.74c0,2-.94,3-2.78,3A3,3,0,0,1,150,38a2.31,2.31,0,0,1-.79-1.49h.72a1.65,1.65,0,0,0,.58,1,2.16,2.16,0,0,0,1.38.38c1.36,0,2.06-.78,2.06-2.32V34.42a2.33,2.33,0,0,1-2.22,1.41,2.57,2.57,0,0,1-2.07-.92,3.68,3.68,0,0,1,0-4.37,2.55,2.55,0,0,1,2.07-.93A2.31,2.31,0,0,1,154,31ZM150.23,31a2.73,2.73,0,0,0-.55,1.77,2.79,2.79,0,0,0,.51,1.72,1.9,1.9,0,0,0,1.62.76,1.94,1.94,0,0,0,1.61-.72,2.76,2.76,0,0,0,.54-1.76,2.79,2.79,0,0,0-.54-1.77,2.09,2.09,0,0,0-3.19,0Z"/><path class="cls-1" d="M161.69,29.78h1.62v.62h-1.62v4.2a1,1,0,0,0,.14.58.71.71,0,0,0,.54.17h.78V36h-.87a1.29,1.29,0,0,1-1-.38,1.42,1.42,0,0,1-.28-1V30.4h-1.32v-.62H161V28.07l.72-.3Z"/><path class="cls-1" d="M165.13,27.24V30.9a2.49,2.49,0,0,1,.87-1,2.15,2.15,0,0,1,1.17-.32,2.17,2.17,0,0,1,1.66.62,2.54,2.54,0,0,1,.6,1.79v4h-.72V32.11a2,2,0,0,0-.46-1.4,1.69,1.69,0,0,0-1.28-.48,1.65,1.65,0,0,0-1.31.62,2.25,2.25,0,0,0-.53,1.54V36h-.73V27.24Z"/><path class="cls-1" d="M175.66,30.6a4.37,4.37,0,0,1,.7,2.48h-5a2.85,2.85,0,0,0,.61,1.79,1.94,1.94,0,0,0,1.53.65,2.12,2.12,0,0,0,1.37-.44,2.47,2.47,0,0,0,.66-1.1h.73a2.86,2.86,0,0,1-.83,1.48,2.71,2.71,0,0,1-1.93.68,2.64,2.64,0,0,1-2.08-.88,3.86,3.86,0,0,1,0-4.68,2.86,2.86,0,0,1,4.31,0Zm-3.67.27a2.7,2.7,0,0,0-.65,1.63h4.27c-.12-1.51-.84-2.27-2.15-2.27A1.81,1.81,0,0,0,172,30.87Z"/><path class="cls-1" d="M186.42,30.59a3.82,3.82,0,0,1,0,4.57,2.95,2.95,0,0,1-4.39,0,3.8,3.8,0,0,1,0-4.57,2.94,2.94,0,0,1,4.38,0Zm-3.86.46a3.3,3.3,0,0,0,0,3.65,2.11,2.11,0,0,0,3.34,0,3,3,0,0,0,.56-1.82,3,3,0,0,0-.56-1.83,2.11,2.11,0,0,0-3.34,0Z"/><path class="cls-1" d="M189.17,29.78v3.78a2.19,2.19,0,0,0,.41,1.46,1.68,1.68,0,0,0,1.33.5,1.74,1.74,0,0,0,1.26-.55,2.21,2.21,0,0,0,.61-1.43V29.78h.72V36h-.72v-1a2.28,2.28,0,0,1-2.06,1.21c-1.51,0-2.27-.85-2.27-2.54V29.78Z"/><path class="cls-1" d="M196.51,29.78h1.62v.62h-1.62v4.2a.92.92,0,0,0,.15.58.68.68,0,0,0,.54.17H198V36h-.88a1.29,1.29,0,0,1-1-.38,1.47,1.47,0,0,1-.28-1V30.4h-1.31v-.62h1.31V28.07l.72-.3Z"/><path class="cls-1" d="M203.81,31.51h-.71a1.43,1.43,0,0,0-.52-.94,2.43,2.43,0,0,0-2.37-.06.84.84,0,0,0-.43.74.87.87,0,0,0,.55.76,7.84,7.84,0,0,0,1.31.43,6.32,6.32,0,0,1,1.6.57,1.4,1.4,0,0,1,.75,1.25c0,1.25-.84,1.88-2.52,1.88s-2.46-.7-2.6-2.12h.7a1.75,1.75,0,0,0,.58,1.18,2.2,2.2,0,0,0,1.3.32c1.2,0,1.79-.41,1.79-1.22a1,1,0,0,0-.61-.87,9,9,0,0,0-1.38-.43,6.05,6.05,0,0,1-1.51-.55,1.32,1.32,0,0,1-.71-1.19,1.39,1.39,0,0,1,.68-1.21,2.79,2.79,0,0,1,1.63-.44C202.8,29.61,203.63,30.24,203.81,31.51Z"/><path class="cls-1" d="M206.29,27.72a.52.52,0,0,1,.18.42.61.61,0,0,1-.19.44.63.63,0,0,1-.42.16.61.61,0,0,1-.43-.16.6.6,0,0,1-.18-.44.52.52,0,0,1,.18-.42.55.55,0,0,1,.43-.18A.58.58,0,0,1,206.29,27.72Zm-.07,2.06V36h-.72v-6.2Z"/><path class="cls-1" d="M213.49,27.24V36h-.68V34.75a2.22,2.22,0,0,1-2.17,1.39,2.5,2.5,0,0,1-2.1-1,3.67,3.67,0,0,1-.69-2.29,3.63,3.63,0,0,1,.69-2.27,2.42,2.42,0,0,1,2.06-1,2.26,2.26,0,0,1,2.17,1.47V27.24ZM209.1,31a3,3,0,0,0-.51,1.86,3.11,3.11,0,0,0,.5,1.87,2,2,0,0,0,3.19,0,3,3,0,0,0,.52-1.8v-.14a3,3,0,0,0-.56-1.86,1.79,1.79,0,0,0-1.51-.74A1.9,1.9,0,0,0,209.1,31Z"/><path class="cls-1" d="M219.72,30.6a4.45,4.45,0,0,1,.71,2.48h-5a2.91,2.91,0,0,0,.61,1.79,2,2,0,0,0,1.54.65,2.09,2.09,0,0,0,1.36-.44,2.39,2.39,0,0,0,.66-1.1h.74a2.93,2.93,0,0,1-.83,1.48,2.73,2.73,0,0,1-1.93.68,2.67,2.67,0,0,1-2.09-.88,3.9,3.9,0,0,1,0-4.68,2.57,2.57,0,0,1,2.1-1A2.54,2.54,0,0,1,219.72,30.6Zm-3.67.27a2.76,2.76,0,0,0-.65,1.63h4.27c-.12-1.51-.84-2.27-2.14-2.27A1.82,1.82,0,0,0,216.05,30.87Z"/><path class="cls-1" d="M225.69,29.78l1.68,5.27,1.56-5.27h.69l1.56,5.27,1.69-5.27h.79L231.54,36h-.7l-1.55-5.27L227.7,36H227l-2.14-6.2Z"/><path class="cls-1" d="M239.39,30.59a3.86,3.86,0,0,1,0,4.57,2.95,2.95,0,0,1-4.39,0,3.8,3.8,0,0,1,0-4.57,2.67,2.67,0,0,1,2.18-1A2.71,2.71,0,0,1,239.39,30.59Zm-3.86.46a3.3,3.3,0,0,0,0,3.65,2.11,2.11,0,0,0,3.34,0,3,3,0,0,0,.56-1.82,3,3,0,0,0-.56-1.83,2.11,2.11,0,0,0-3.34,0Z"/><path class="cls-1" d="M244.92,29.74v.73a3.45,3.45,0,0,0-.95-.13,1.55,1.55,0,0,0-1.34.74,2.64,2.64,0,0,0-.49,1.62V36h-.72v-6.2h.72V31a2.38,2.38,0,0,1,.68-.92,1.8,1.8,0,0,1,1.2-.43A2.38,2.38,0,0,1,244.92,29.74Z"/><path class="cls-1" d="M246.69,27.24V36H246V27.24Z"/><path class="cls-1" d="M253.82,27.24V36h-.68V34.75A2.22,2.22,0,0,1,251,36.14a2.5,2.5,0,0,1-2.1-1,3.66,3.66,0,0,1-.68-2.29,3.62,3.62,0,0,1,.68-2.27,2.42,2.42,0,0,1,2.06-1,2.26,2.26,0,0,1,2.17,1.47V27.24ZM249.43,31a3.06,3.06,0,0,0-.51,1.86,3.19,3.19,0,0,0,.5,1.87,2,2,0,0,0,3.19,0,3,3,0,0,0,.52-1.8v-.14a3,3,0,0,0-.55-1.86,1.82,1.82,0,0,0-1.51-.74A1.91,1.91,0,0,0,249.43,31Z"/><path class="cls-1" d="M264.05,30.6a4.45,4.45,0,0,1,.71,2.48h-5a2.91,2.91,0,0,0,.61,1.79,2,2,0,0,0,1.54.65,2.09,2.09,0,0,0,1.36-.44,2.39,2.39,0,0,0,.66-1.1h.73a2.92,2.92,0,0,1-.82,1.48,2.74,2.74,0,0,1-1.93.68,2.65,2.65,0,0,1-2.09-.88,3.9,3.9,0,0,1,0-4.68,2.57,2.57,0,0,1,2.1-1A2.54,2.54,0,0,1,264.05,30.6Zm-3.67.27a2.76,2.76,0,0,0-.65,1.63H264c-.12-1.51-.84-2.27-2.15-2.27A1.81,1.81,0,0,0,260.38,30.87Z"/><path class="cls-1" d="M266.34,29.78l1.78,2.38,1.77-2.38h.85l-2.21,2.92L271,36h-.86l-2-2.74-2,2.74h-.86l2.49-3.28-2.23-2.92Z"/><path class="cls-1" d="M276.78,30.6a3.64,3.64,0,0,1,.68,2.29,3.68,3.68,0,0,1-.67,2.27,2.47,2.47,0,0,1-2.07,1,2.26,2.26,0,0,1-2.17-1.46v3.67h-.72V29.78h.68V31a2.26,2.26,0,0,1,2.18-1.39A2.48,2.48,0,0,1,276.78,30.6ZM273,31a3,3,0,0,0-.52,1.84V33a2.91,2.91,0,0,0,.55,1.83,1.83,1.83,0,0,0,1.52.72,1.94,1.94,0,0,0,1.63-.77,3.16,3.16,0,0,0,.5-1.87,3.26,3.26,0,0,0-.49-1.87,1.86,1.86,0,0,0-1.62-.8A1.81,1.81,0,0,0,273,31Z"/><path class="cls-1" d="M283.65,30.59a3.86,3.86,0,0,1,0,4.57,2.76,2.76,0,0,1-2.2,1,2.73,2.73,0,0,1-2.19-1,3.8,3.8,0,0,1,0-4.57,2.67,2.67,0,0,1,2.18-1A2.73,2.73,0,0,1,283.65,30.59Zm-3.87.46a3.3,3.3,0,0,0,0,3.65,2.12,2.12,0,0,0,3.35,0,3,3,0,0,0,.55-1.82,3,3,0,0,0-.55-1.83,2.12,2.12,0,0,0-3.35,0Z"/><path class="cls-1" d="M290.26,31.51h-.71a1.43,1.43,0,0,0-.52-.94,2,2,0,0,0-1.26-.34,1.91,1.91,0,0,0-1.11.28.84.84,0,0,0-.43.74.87.87,0,0,0,.55.76,7.84,7.84,0,0,0,1.31.43,6.32,6.32,0,0,1,1.6.57,1.42,1.42,0,0,1,.75,1.25c0,1.25-.84,1.88-2.52,1.88s-2.46-.7-2.61-2.12H286a1.75,1.75,0,0,0,.58,1.18,2.19,2.19,0,0,0,1.29.32c1.2,0,1.8-.41,1.8-1.22a1,1,0,0,0-.61-.87A9,9,0,0,0,287.7,33a6.05,6.05,0,0,1-1.51-.55,1.32,1.32,0,0,1-.71-1.19,1.4,1.4,0,0,1,.67-1.21,2.85,2.85,0,0,1,1.64-.44C289.25,29.61,290.08,30.24,290.26,31.51Z"/><path class="cls-1" d="M296.3,30.6a4.3,4.3,0,0,1,.71,2.48h-5a2.79,2.79,0,0,0,.61,1.79,1.93,1.93,0,0,0,1.53.65,2.12,2.12,0,0,0,1.37-.44,2.47,2.47,0,0,0,.66-1.1h.73a2.86,2.86,0,0,1-.83,1.48,2.73,2.73,0,0,1-1.93.68,2.68,2.68,0,0,1-2.09-.88,3.88,3.88,0,0,1,0-4.68,2.85,2.85,0,0,1,4.3,0Zm-3.67.27A2.76,2.76,0,0,0,292,32.5h4.27c-.12-1.51-.84-2.27-2.15-2.27A1.84,1.84,0,0,0,292.63,30.87Z"/><path class="cls-1" d="M303.56,27.24V36h-.68V34.75a2.22,2.22,0,0,1-2.17,1.39,2.5,2.5,0,0,1-2.1-1,3.66,3.66,0,0,1-.68-2.29,3.62,3.62,0,0,1,.68-2.27,2.42,2.42,0,0,1,2.06-1,2.26,2.26,0,0,1,2.17,1.47V27.24ZM299.17,31a3.06,3.06,0,0,0-.51,1.86,3.19,3.19,0,0,0,.5,1.87,2,2,0,0,0,3.19,0,3,3,0,0,0,.52-1.8v-.14a3,3,0,0,0-.55-1.86,1.82,1.82,0,0,0-1.51-.74A1.91,1.91,0,0,0,299.17,31Z"/><path class="cls-1" d="M309.79,27.24v3.84A2.28,2.28,0,0,1,312,29.61a2.43,2.43,0,0,1,2.06,1,3.69,3.69,0,0,1,.68,2.27,3.73,3.73,0,0,1-.68,2.29,2.5,2.5,0,0,1-2.09,1,2.21,2.21,0,0,1-2.18-1.39V36h-.68V27.24Zm.53,3.72a2.94,2.94,0,0,0-.55,1.86V33a2.89,2.89,0,0,0,.52,1.8,1.8,1.8,0,0,0,1.57.77,1.89,1.89,0,0,0,1.62-.79,3.19,3.19,0,0,0,.5-1.87,3.06,3.06,0,0,0-.52-1.86,1.88,1.88,0,0,0-1.63-.79A1.79,1.79,0,0,0,310.32,31Z"/><path class="cls-1" d="M316.08,29.78l2,5.16,2-5.16h.79l-3.41,8.57h-.78l1-2.53-2.46-6Z"/><path class="cls-1" d="M330.18,30.88a2.43,2.43,0,0,1,.83-.95,1.92,1.92,0,0,1,1.13-.32,2.06,2.06,0,0,1,1.56.61,2.44,2.44,0,0,1,.56,1.7V36h-.72V32a2,2,0,0,0-.36-1.32,1.53,1.53,0,0,0-1.23-.47,1.41,1.41,0,0,0-1.13.52,1.78,1.78,0,0,0-.46,1.28V36h-.73V32c0-1.2-.52-1.79-1.55-1.79a1.43,1.43,0,0,0-1.16.56,2,2,0,0,0-.48,1.37V36h-.72v-6.2h.72v.93a2,2,0,0,1,1.8-1.1A1.86,1.86,0,0,1,330.18,30.88Z"/><path class="cls-1" d="M340.33,30.31a2.4,2.4,0,0,1,.55,1.67v4h-.68V34.79a3.21,3.21,0,0,1-1,.91,3.25,3.25,0,0,1-1.64.44,2.21,2.21,0,0,1-1.45-.45,1.51,1.51,0,0,1-.58-1.24,1.68,1.68,0,0,1,.87-1.58,4.08,4.08,0,0,1,2.17-.49l1.59,0V32a1.57,1.57,0,0,0-1.8-1.76,2.16,2.16,0,0,0-1.24.31,1.48,1.48,0,0,0-.68,1l-.71,0a2,2,0,0,1,.94-1.42,3,3,0,0,1,1.72-.44A2.42,2.42,0,0,1,340.33,30.31Zm-1.71,2.63c-1.57,0-2.35.52-2.35,1.5a1,1,0,0,0,.39.8,1.69,1.69,0,0,0,1.06.32,2.57,2.57,0,0,0,1.7-.65,1.79,1.79,0,0,0,.75-1.35v-.64Z"/><path class="cls-1" d="M348.3,32.56v.62h-6.06v-.62Z"/><path class="cls-1" d="M10.34,46.15a2.33,2.33,0,0,1,.85,1.65h-.71a1.75,1.75,0,0,0-.63-1.17,2,2,0,0,0-1.32-.4A1.86,1.86,0,0,0,7,47a3.59,3.59,0,0,0,0,3.82,1.87,1.87,0,0,0,1.57.71,1.83,1.83,0,0,0,2-1.76h.71a2.81,2.81,0,0,1-.89,1.78,2.65,2.65,0,0,1-1.81.6,2.59,2.59,0,0,1-2.13-.93,3.43,3.43,0,0,1-.71-2.29,3.61,3.61,0,0,1,.73-2.33,2.53,2.53,0,0,1,2.12-1A2.87,2.87,0,0,1,10.34,46.15Z"/><path class="cls-1" d="M13.1,43.24V46.9a2.49,2.49,0,0,1,.87-1,2.15,2.15,0,0,1,1.17-.32,2.17,2.17,0,0,1,1.66.62A2.54,2.54,0,0,1,17.4,48v4h-.72V48.11a2,2,0,0,0-.46-1.4,1.69,1.69,0,0,0-1.28-.48,1.65,1.65,0,0,0-1.31.62,2.25,2.25,0,0,0-.53,1.54V52h-.73V43.24Z"/><path class="cls-1" d="M20.06,43.72a.49.49,0,0,1,.18.42.61.61,0,0,1-.19.44.63.63,0,0,1-.42.16.61.61,0,0,1-.43-.16.6.6,0,0,1-.18-.44.52.52,0,0,1,.18-.42.55.55,0,0,1,.43-.18A.58.58,0,0,1,20.06,43.72ZM20,45.78V52h-.72v-6.2Z"/><path class="cls-1" d="M26.9,48.16V52h-.72V48.21c0-1.32-.58-2-1.76-2a1.64,1.64,0,0,0-1.25.54,2.13,2.13,0,0,0-.58,1.46V52h-.72v-6.2h.72v1a2.39,2.39,0,0,1,.83-.87,2.17,2.17,0,0,1,1.18-.31C26.14,45.61,26.9,46.46,26.9,48.16Z"/><path class="cls-1" d="M33.13,46.6a4.45,4.45,0,0,1,.71,2.48h-5a2.91,2.91,0,0,0,.61,1.79,2,2,0,0,0,1.54.65,2.09,2.09,0,0,0,1.36-.44A2.48,2.48,0,0,0,33,50h.73a2.93,2.93,0,0,1-.83,1.48,2.73,2.73,0,0,1-1.93.68,2.67,2.67,0,0,1-2.09-.88,3.9,3.9,0,0,1,0-4.68,2.57,2.57,0,0,1,2.1-1A2.54,2.54,0,0,1,33.13,46.6Zm-3.67.27a2.76,2.76,0,0,0-.65,1.63h4.27c-.12-1.51-.84-2.27-2.14-2.27A1.82,1.82,0,0,0,29.46,46.87Z"/><path class="cls-1" d="M39.09,45.78,41,51.06,43,45.78h.81L41.41,52h-.74l-2.38-6.2Z"/><path class="cls-1" d="M45.76,43.72a.52.52,0,0,1,.18.42.62.62,0,0,1-.2.44.6.6,0,0,1-.41.16.64.64,0,0,1-.44-.16.6.6,0,0,1-.18-.44.52.52,0,0,1,.18-.42.57.57,0,0,1,.44-.18A.6.6,0,0,1,45.76,43.72Zm-.07,2.06V52H45v-6.2Z"/><path class="cls-1" d="M52.14,47.51h-.71a1.46,1.46,0,0,0-.51-.94,2,2,0,0,0-1.26-.34,1.92,1.92,0,0,0-1.12.28.84.84,0,0,0-.43.74.87.87,0,0,0,.55.76,7.84,7.84,0,0,0,1.31.43,6.59,6.59,0,0,1,1.61.57,1.41,1.41,0,0,1,.74,1.25c0,1.25-.84,1.88-2.52,1.88s-2.46-.7-2.6-2.12h.71a1.7,1.7,0,0,0,.57,1.18,2.2,2.2,0,0,0,1.3.32c1.2,0,1.8-.41,1.8-1.22a1,1,0,0,0-.62-.87A9,9,0,0,0,49.58,49a6.05,6.05,0,0,1-1.51-.55,1.31,1.31,0,0,1-.7-1.19A1.38,1.38,0,0,1,48,46.05a2.79,2.79,0,0,1,1.63-.44C51.13,45.61,52,46.24,52.14,47.51Z"/><path class="cls-1" d="M54.63,43.72a.52.52,0,0,1,.18.42.61.61,0,0,1-.62.6.61.61,0,0,1-.43-.16.6.6,0,0,1-.18-.44.52.52,0,0,1,.18-.42.55.55,0,0,1,.43-.18A.6.6,0,0,1,54.63,43.72Zm-.08,2.06V52h-.72v-6.2Z"/><path class="cls-1" d="M61.33,46.59a3.82,3.82,0,0,1,0,4.57,2.95,2.95,0,0,1-4.39,0,3.84,3.84,0,0,1,0-4.57,2.94,2.94,0,0,1,4.38,0Zm-3.86.46a3.3,3.3,0,0,0,0,3.65,2,2,0,0,0,1.67.82,2,2,0,0,0,1.68-.82,3,3,0,0,0,.55-1.82,3,3,0,0,0-.55-1.83,2,2,0,0,0-1.68-.82A1.94,1.94,0,0,0,57.47,47.05Z"/><path class="cls-1" d="M68.4,48.16V52h-.72V48.21c0-1.32-.59-2-1.76-2a1.61,1.61,0,0,0-1.25.54,2.19,2.19,0,0,0-.59,1.46V52h-.72v-6.2h.72v1a2.42,2.42,0,0,1,.84-.87,2.15,2.15,0,0,1,1.18-.31C67.63,45.61,68.4,46.46,68.4,48.16Z"/><path class="cls-1" d="M71.27,51.06a1.36,1.36,0,0,1,.19.75A1.87,1.87,0,0,1,71,53a2,2,0,0,1-1.09.69v-.48a1.37,1.37,0,0,0,.72-.51,1.14,1.14,0,0,0,.24-.75l-.24,0a.61.61,0,0,1-.61-.61.6.6,0,0,1,.18-.46.58.58,0,0,1,.46-.16A.68.68,0,0,1,71.27,51.06Z"/><path class="cls-1" d="M77.11,45.78l1.68,5.27,1.56-5.27h.7l1.56,5.27,1.69-5.27h.79L83,52h-.7l-1.56-5.27L79.13,52h-.69l-2.13-6.2Z"/><path class="cls-1" d="M86.64,43.24V46.9a2.55,2.55,0,0,1,.86-1,2.45,2.45,0,0,1,2.84.3,2.54,2.54,0,0,1,.6,1.79v4h-.72V48.11a2,2,0,0,0-.46-1.4,1.69,1.69,0,0,0-1.28-.48,1.65,1.65,0,0,0-1.31.62,2.25,2.25,0,0,0-.53,1.54V52h-.73V43.24Z"/><path class="cls-1" d="M97,46.31A2.4,2.4,0,0,1,97.56,48v4h-.69V50.79a3.1,3.1,0,0,1-1,.91,3.19,3.19,0,0,1-1.63.44,2.21,2.21,0,0,1-1.45-.45,1.49,1.49,0,0,1-.59-1.24,1.69,1.69,0,0,1,.88-1.58,4.05,4.05,0,0,1,2.17-.49l1.58,0V48A1.57,1.57,0,0,0,95,46.22a2.18,2.18,0,0,0-1.24.31,1.51,1.51,0,0,0-.68,1l-.71,0a2.05,2.05,0,0,1,.94-1.42,3,3,0,0,1,1.73-.44A2.43,2.43,0,0,1,97,46.31Zm-1.72,2.63c-1.57,0-2.35.52-2.35,1.5a.93.93,0,0,0,.4.8,1.64,1.64,0,0,0,1,.32,2.59,2.59,0,0,0,1.71-.65,1.78,1.78,0,0,0,.74-1.35v-.64Z"/><path class="cls-1" d="M100.57,45.78h1.62v.62h-1.62v4.2a.92.92,0,0,0,.15.58.68.68,0,0,0,.54.17H102V52h-.88a1.29,1.29,0,0,1-1-.38,1.47,1.47,0,0,1-.28-1V46.4H98.53v-.62h1.32V44.07l.72-.3Z"/><path class="cls-1" d="M112.68,43.24V52H112V50.75a2.22,2.22,0,0,1-2.17,1.39,2.48,2.48,0,0,1-2.09-1,3.67,3.67,0,0,1-.69-2.29,3.63,3.63,0,0,1,.69-2.27,2.41,2.41,0,0,1,2.06-1A2.28,2.28,0,0,1,112,47.08V43.24ZM108.29,47a3,3,0,0,0-.52,1.86,3.12,3.12,0,0,0,.51,1.87,2,2,0,0,0,3.19,0A3,3,0,0,0,112,49v-.14a3,3,0,0,0-.55-1.86,1.8,1.8,0,0,0-1.51-.74A1.88,1.88,0,0,0,108.29,47Z"/><path class="cls-1" d="M119.1,46.59a3.86,3.86,0,0,1,0,4.57,2.95,2.95,0,0,1-4.39,0,3.8,3.8,0,0,1,0-4.57,2.67,2.67,0,0,1,2.18-1A2.71,2.71,0,0,1,119.1,46.59Zm-3.86.46a3.3,3.3,0,0,0,0,3.65,2.11,2.11,0,0,0,3.34,0,3,3,0,0,0,.56-1.82,3,3,0,0,0-.56-1.83,2.11,2.11,0,0,0-3.34,0Z"/><path class="cls-1" d="M125.84,46.6a4.45,4.45,0,0,1,.71,2.48h-5a2.91,2.91,0,0,0,.61,1.79,2,2,0,0,0,1.54.65,2.14,2.14,0,0,0,1.37-.44,2.57,2.57,0,0,0,.66-1.1h.73a2.93,2.93,0,0,1-.83,1.48,2.73,2.73,0,0,1-1.93.68,2.67,2.67,0,0,1-2.09-.88,3.88,3.88,0,0,1,0-4.68,2.85,2.85,0,0,1,4.3,0Zm-3.67.27a2.76,2.76,0,0,0-.65,1.63h4.27c-.12-1.51-.84-2.27-2.14-2.27A1.83,1.83,0,0,0,122.17,46.87Z"/><path class="cls-1" d="M132.29,47.51h-.71a1.43,1.43,0,0,0-.52-.94,2,2,0,0,0-1.26-.34,1.91,1.91,0,0,0-1.11.28.84.84,0,0,0-.43.74.87.87,0,0,0,.55.76,7.84,7.84,0,0,0,1.31.43,6.32,6.32,0,0,1,1.6.57,1.42,1.42,0,0,1,.75,1.25c0,1.25-.84,1.88-2.52,1.88s-2.46-.7-2.6-2.12h.7a1.75,1.75,0,0,0,.58,1.18,2.19,2.19,0,0,0,1.29.32c1.2,0,1.8-.41,1.8-1.22a1,1,0,0,0-.61-.87,9,9,0,0,0-1.38-.43,6.05,6.05,0,0,1-1.51-.55,1.32,1.32,0,0,1-.71-1.19,1.39,1.39,0,0,1,.68-1.21,2.79,2.79,0,0,1,1.63-.44C131.28,45.61,132.11,46.24,132.29,47.51Z"/><path class="cls-1" d="M139.12,45.78h1.62v.62h-1.62v4.2a.92.92,0,0,0,.14.58.71.71,0,0,0,.54.17h.78V52h-.88a1.31,1.31,0,0,1-1-.38,1.48,1.48,0,0,1-.27-1V46.4h-1.32v-.62h1.32V44.07l.72-.3Z"/><path class="cls-1" d="M142.56,43.24V46.9a2.47,2.47,0,0,1,.86-1,2.45,2.45,0,0,1,2.84.3,2.54,2.54,0,0,1,.59,1.79v4h-.71V48.11a2,2,0,0,0-.46-1.4,1.69,1.69,0,0,0-1.28-.48,1.65,1.65,0,0,0-1.31.62,2.25,2.25,0,0,0-.53,1.54V52h-.73V43.24Z"/><path class="cls-1" d="M153.08,46.6a4.45,4.45,0,0,1,.71,2.48h-5a2.91,2.91,0,0,0,.61,1.79,2,2,0,0,0,1.54.65,2.14,2.14,0,0,0,1.37-.44,2.47,2.47,0,0,0,.66-1.1h.73a2.93,2.93,0,0,1-.83,1.48,2.73,2.73,0,0,1-1.93.68,2.67,2.67,0,0,1-2.09-.88,3.88,3.88,0,0,1,0-4.68,2.85,2.85,0,0,1,4.3,0Zm-3.67.27a2.69,2.69,0,0,0-.64,1.63H153c-.12-1.51-.84-2.27-2.14-2.27A1.83,1.83,0,0,0,149.41,46.87Z"/><path class="cls-1" d="M162.44,45.74v.73a3.43,3.43,0,0,0-.94-.13,1.55,1.55,0,0,0-1.35.74,2.7,2.7,0,0,0-.49,1.62V52h-.72v-6.2h.72V47a2.4,2.4,0,0,1,.69-.92,1.76,1.76,0,0,1,1.19-.43A2.38,2.38,0,0,1,162.44,45.74Z"/><path class="cls-1" d="M168,46.6a4.3,4.3,0,0,1,.71,2.48h-5a2.79,2.79,0,0,0,.61,1.79,1.93,1.93,0,0,0,1.53.65,2.14,2.14,0,0,0,1.37-.44,2.47,2.47,0,0,0,.66-1.1h.73a2.86,2.86,0,0,1-.83,1.48,2.73,2.73,0,0,1-1.93.68,2.68,2.68,0,0,1-2.09-.88,3.88,3.88,0,0,1,0-4.68,2.85,2.85,0,0,1,4.3,0Zm-3.67.27a2.76,2.76,0,0,0-.64,1.63h4.27c-.12-1.51-.84-2.27-2.15-2.27A1.84,1.84,0,0,0,164.3,46.87Z"/><path class="cls-1" d="M174.4,46.31A2.45,2.45,0,0,1,175,48v4h-.69V50.79a3.1,3.1,0,0,1-1,.91,3.24,3.24,0,0,1-1.63.44,2.19,2.19,0,0,1-1.45-.45,1.49,1.49,0,0,1-.59-1.24,1.7,1.7,0,0,1,.87-1.58,4.1,4.1,0,0,1,2.17-.49l1.59,0V48a1.57,1.57,0,0,0-1.8-1.76,2.16,2.16,0,0,0-1.24.31,1.48,1.48,0,0,0-.68,1l-.71,0a2,2,0,0,1,.94-1.42,3,3,0,0,1,1.72-.44A2.44,2.44,0,0,1,174.4,46.31Zm-1.72,2.63c-1.57,0-2.35.52-2.35,1.5a.93.93,0,0,0,.4.8,1.64,1.64,0,0,0,1.05.32,2.57,2.57,0,0,0,1.7-.65,1.76,1.76,0,0,0,.75-1.35v-.64Z"/><path class="cls-1" d="M177.41,43.24V52h-.72V43.24Z"/><path class="cls-1" d="M183.25,45.78l1.68,5.27,1.56-5.27h.7l1.56,5.27,1.69-5.27h.79L189.11,52h-.7l-1.56-5.27L185.27,52h-.69l-2.13-6.2Z"/><path class="cls-1" d="M197,46.59a3.86,3.86,0,0,1,0,4.57,2.76,2.76,0,0,1-2.2,1,2.73,2.73,0,0,1-2.19-1,3.8,3.8,0,0,1,0-4.57,2.67,2.67,0,0,1,2.18-1A2.73,2.73,0,0,1,197,46.59Zm-3.87.46a3.3,3.3,0,0,0,0,3.65,2.12,2.12,0,0,0,3.35,0,3,3,0,0,0,.55-1.82,3,3,0,0,0-.55-1.83,2.12,2.12,0,0,0-3.35,0Z"/><path class="cls-1" d="M202.49,45.74v.73a3.56,3.56,0,0,0-1-.13,1.54,1.54,0,0,0-1.34.74,2.64,2.64,0,0,0-.49,1.62V52H199v-6.2h.72V47a2.29,2.29,0,0,1,.68-.92,1.77,1.77,0,0,1,1.2-.43A2.38,2.38,0,0,1,202.49,45.74Z"/><path class="cls-1" d="M204.25,43.24V52h-.72V43.24Z"/><path class="cls-1" d="M211.39,43.24V52h-.68V50.75a2.23,2.23,0,0,1-2.17,1.39,2.5,2.5,0,0,1-2.1-1,3.67,3.67,0,0,1-.69-2.29,3.63,3.63,0,0,1,.69-2.27,2.41,2.41,0,0,1,2.06-1,2.27,2.27,0,0,1,2.17,1.47V43.24ZM207,47a3,3,0,0,0-.52,1.86,3.12,3.12,0,0,0,.51,1.87,2,2,0,0,0,3.19,0,3,3,0,0,0,.51-1.8v-.14a3,3,0,0,0-.55-1.86,1.79,1.79,0,0,0-1.51-.74A1.88,1.88,0,0,0,207,47Z"/><path class="cls-1" d="M217,45.78l1.68,5.27,1.56-5.27h.69l1.56,5.27,1.69-5.27H225L222.86,52h-.69l-1.56-5.27L219,52h-.68l-2.13-6.2Z"/><path class="cls-1" d="M226.54,43.24V46.9a2.39,2.39,0,0,1,.86-1,2.18,2.18,0,0,1,1.18-.32,2.15,2.15,0,0,1,1.65.62,2.5,2.5,0,0,1,.6,1.79v4h-.72V48.11a2,2,0,0,0-.45-1.4,1.73,1.73,0,0,0-1.29-.48,1.67,1.67,0,0,0-1.31.62,2.3,2.3,0,0,0-.52,1.54V52h-.73V43.24Z"/><path class="cls-1" d="M233.5,43.72a.52.52,0,0,1,.18.42.62.62,0,0,1-.2.44.6.6,0,0,1-.41.16.64.64,0,0,1-.44-.16.6.6,0,0,1-.18-.44.52.52,0,0,1,.18-.42.57.57,0,0,1,.44-.18A.6.6,0,0,1,233.5,43.72Zm-.07,2.06V52h-.72v-6.2Z"/><path class="cls-1" d="M239.72,46.15a2.33,2.33,0,0,1,.85,1.65h-.71a1.75,1.75,0,0,0-.63-1.17,2,2,0,0,0-1.32-.4,1.87,1.87,0,0,0-1.56.76,3.59,3.59,0,0,0,0,3.82,1.87,1.87,0,0,0,1.57.71,1.83,1.83,0,0,0,2-1.76h.71a2.81,2.81,0,0,1-.89,1.78,2.65,2.65,0,0,1-1.81.6,2.59,2.59,0,0,1-2.13-.93,3.48,3.48,0,0,1-.71-2.29,3.61,3.61,0,0,1,.73-2.33,2.54,2.54,0,0,1,2.12-1A2.85,2.85,0,0,1,239.72,46.15Z"/><path class="cls-1" d="M242.49,43.24V46.9a2.39,2.39,0,0,1,.86-1,2.15,2.15,0,0,1,1.17-.32,2.17,2.17,0,0,1,1.66.62,2.5,2.5,0,0,1,.6,1.79v4h-.72V48.11a2,2,0,0,0-.46-1.4,1.69,1.69,0,0,0-1.28-.48,1.66,1.66,0,0,0-1.31.62,2.25,2.25,0,0,0-.52,1.54V52h-.74V43.24Z"/><path class="cls-1" d="M253.44,43.72a.52.52,0,0,1,.18.42.61.61,0,0,1-.19.44.63.63,0,0,1-.42.16.61.61,0,0,1-.43-.16.6.6,0,0,1-.18-.44.52.52,0,0,1,.18-.42.55.55,0,0,1,.43-.18A.58.58,0,0,1,253.44,43.72Zm-.07,2.06V52h-.72v-6.2Z"/><path class="cls-1" d="M259.82,47.51h-.7a1.52,1.52,0,0,0-.52-.94,2,2,0,0,0-1.26-.34,1.89,1.89,0,0,0-1.11.28.85.85,0,0,0-.44.74.86.86,0,0,0,.56.76,8,8,0,0,0,1.3.43,6.28,6.28,0,0,1,1.61.57,1.41,1.41,0,0,1,.74,1.25c0,1.25-.84,1.88-2.52,1.88s-2.45-.7-2.6-2.12h.71a1.67,1.67,0,0,0,.58,1.18,2.17,2.17,0,0,0,1.29.32c1.2,0,1.8-.41,1.8-1.22a1,1,0,0,0-.61-.87,9.4,9.4,0,0,0-1.38-.43,6.05,6.05,0,0,1-1.51-.55,1.32,1.32,0,0,1-.71-1.19,1.4,1.4,0,0,1,.67-1.21,2.82,2.82,0,0,1,1.63-.44C258.82,45.61,259.64,46.24,259.82,47.51Z"/><path class="cls-1" d="M268.78,43.41v.64h-1a.83.83,0,0,0-.68.24,1.12,1.12,0,0,0-.22.77v.72h1.86v.62h-1.86V52h-.72V46.4h-1.65v-.62h1.65V45a1.6,1.6,0,0,1,.39-1.18,1.46,1.46,0,0,1,1.17-.45Z"/><path class="cls-1" d="M270.31,45.78v3.78a2.25,2.25,0,0,0,.41,1.46,1.68,1.68,0,0,0,1.33.5,1.74,1.74,0,0,0,1.26-.55,2.16,2.16,0,0,0,.61-1.43V45.78h.72V52h-.72v-1a2.27,2.27,0,0,1-2.06,1.21c-1.51,0-2.26-.85-2.26-2.54V45.78Z"/><path class="cls-1" d="M277.11,43.24V52h-.72V43.24Z"/><path class="cls-1" d="M279.79,43.24V52h-.72V43.24Z"/><path class="cls-1" d="M290.44,46.59a3.86,3.86,0,0,1,0,4.57,2.76,2.76,0,0,1-2.2,1,2.73,2.73,0,0,1-2.19-1,3.8,3.8,0,0,1,0-4.57,2.67,2.67,0,0,1,2.18-1A2.73,2.73,0,0,1,290.44,46.59Zm-3.87.46a3.3,3.3,0,0,0,0,3.65,2.12,2.12,0,0,0,3.35,0,3,3,0,0,0,.55-1.82,3,3,0,0,0-.55-1.83,2.12,2.12,0,0,0-3.35,0Z"/><path class="cls-1" d="M296.09,43.41v.64h-1a.84.84,0,0,0-.68.24,1.13,1.13,0,0,0-.21.77v.72H296v.62h-1.85V52h-.72V46.4h-1.66v-.62h1.66V45a1.64,1.64,0,0,1,.38-1.18,1.46,1.46,0,0,1,1.17-.45Z"/><path class="cls-1" d="M306.3,43.24V52h-.68V50.75a2.24,2.24,0,0,1-2.18,1.39,2.48,2.48,0,0,1-2.09-1,3.67,3.67,0,0,1-.69-2.29,3.63,3.63,0,0,1,.69-2.27,2.41,2.41,0,0,1,2.06-1,2.28,2.28,0,0,1,2.17,1.47V43.24ZM301.91,47a3,3,0,0,0-.52,1.86,3.12,3.12,0,0,0,.51,1.87,2,2,0,0,0,3.19,0,3,3,0,0,0,.51-1.8v-.14a3,3,0,0,0-.55-1.86,1.8,1.8,0,0,0-1.51-.74A1.88,1.88,0,0,0,301.91,47Z"/><path class="cls-1" d="M309,43.72a.49.49,0,0,1,.18.42.61.61,0,0,1-.19.44.63.63,0,0,1-.42.16.61.61,0,0,1-.43-.16.6.6,0,0,1-.18-.44.52.52,0,0,1,.18-.42.55.55,0,0,1,.43-.18A.57.57,0,0,1,309,43.72Zm-.07,2.06V52h-.72v-6.2Z"/><path class="cls-1" d="M315.54,47V45.78h.72v5.74c0,2-.94,3-2.78,3a3,3,0,0,1-1.89-.53,2.31,2.31,0,0,1-.79-1.49h.72a1.65,1.65,0,0,0,.58,1,2.16,2.16,0,0,0,1.38.38c1.36,0,2.06-.78,2.06-2.32V50.42a2.33,2.33,0,0,1-2.22,1.41,2.57,2.57,0,0,1-2.07-.92,3.68,3.68,0,0,1,0-4.37,2.55,2.55,0,0,1,2.07-.93A2.31,2.31,0,0,1,315.54,47ZM311.81,47a2.73,2.73,0,0,0-.55,1.77,2.79,2.79,0,0,0,.51,1.72,1.88,1.88,0,0,0,1.62.76,1.94,1.94,0,0,0,1.61-.72,2.76,2.76,0,0,0,.54-1.76A2.79,2.79,0,0,0,315,47a2.09,2.09,0,0,0-3.19,0Z"/><path class="cls-1" d="M318.93,43.72a.55.55,0,0,1,.18.42.61.61,0,0,1-.62.6.61.61,0,0,1-.43-.16.6.6,0,0,1-.18-.44.52.52,0,0,1,.18-.42.55.55,0,0,1,.43-.18A.62.62,0,0,1,318.93,43.72Zm-.08,2.06V52h-.72v-6.2Z"/><path class="cls-1" d="M322.22,45.78h1.62v.62h-1.62v4.2a.92.92,0,0,0,.15.58.68.68,0,0,0,.54.17h.78V52h-.88a1.29,1.29,0,0,1-1-.38,1.48,1.48,0,0,1-.27-1V46.4h-1.32v-.62h1.32V44.07l.71-.3Z"/><path class="cls-1" d="M329.5,46.31a2.4,2.4,0,0,1,.55,1.67v4h-.69V50.79a3.1,3.1,0,0,1-1,.91,3.24,3.24,0,0,1-1.63.44,2.19,2.19,0,0,1-1.45-.45,1.49,1.49,0,0,1-.59-1.24,1.7,1.7,0,0,1,.87-1.58,4.1,4.1,0,0,1,2.17-.49l1.59,0V48a1.57,1.57,0,0,0-1.8-1.76,2.18,2.18,0,0,0-1.24.31,1.51,1.51,0,0,0-.68,1l-.71,0a2,2,0,0,1,.94-1.42,3,3,0,0,1,1.72-.44A2.44,2.44,0,0,1,329.5,46.31Zm-1.72,2.63c-1.57,0-2.35.52-2.35,1.5a.93.93,0,0,0,.4.8,1.64,1.64,0,0,0,1.05.32,2.57,2.57,0,0,0,1.7-.65,1.76,1.76,0,0,0,.75-1.35v-.64Z"/><path class="cls-1" d="M332.51,43.24V52h-.72V43.24Z"/><path class="cls-1" d="M7.07,59.72a.52.52,0,0,1,.18.42.61.61,0,0,1-.19.44.63.63,0,0,1-.42.16.58.58,0,0,1-.62-.6.55.55,0,0,1,.18-.42.57.57,0,0,1,.44-.18A.58.58,0,0,1,7.07,59.72ZM7,61.78V68H6.28v-6.2Z"/><path class="cls-1" d="M13.33,62.88a2.43,2.43,0,0,1,.83-1,1.9,1.9,0,0,1,1.13-.32,2.06,2.06,0,0,1,1.56.61,2.44,2.44,0,0,1,.56,1.7V68h-.72V64a2,2,0,0,0-.36-1.32,1.56,1.56,0,0,0-1.24-.47,1.41,1.41,0,0,0-1.12.52A1.74,1.74,0,0,0,13.51,64v4h-.73V64c0-1.2-.52-1.79-1.55-1.79a1.42,1.42,0,0,0-1.16.56,2,2,0,0,0-.48,1.37V68H8.87v-6.2h.72v.93a2,2,0,0,1,1.8-1.1A1.86,1.86,0,0,1,13.33,62.88Z"/><path class="cls-1" d="M23.48,62.31A2.4,2.4,0,0,1,24,64v4h-.68V66.79a3.14,3.14,0,0,1-1,.91,3.19,3.19,0,0,1-1.63.44,2.21,2.21,0,0,1-1.45-.45,1.51,1.51,0,0,1-.58-1.24,1.68,1.68,0,0,1,.87-1.58,4.08,4.08,0,0,1,2.17-.49l1.58,0V64a1.57,1.57,0,0,0-1.79-1.76,2.14,2.14,0,0,0-1.24.31,1.48,1.48,0,0,0-.68,1l-.71,0a2,2,0,0,1,.93-1.42,3,3,0,0,1,1.73-.44A2.42,2.42,0,0,1,23.48,62.31Zm-1.71,2.63c-1.57,0-2.35.52-2.35,1.5a1,1,0,0,0,.39.8,1.69,1.69,0,0,0,1.06.32,2.57,2.57,0,0,0,1.7-.65,1.78,1.78,0,0,0,.74-1.35v-.64Z"/><path class="cls-1" d="M30.32,63V61.78H31v5.74c0,2-.93,3-2.78,3A2.94,2.94,0,0,1,26.38,70a2.27,2.27,0,0,1-.79-1.49h.71a1.65,1.65,0,0,0,.58,1,2.16,2.16,0,0,0,1.38.38c1.37,0,2.06-.78,2.06-2.32V66.42a2.32,2.32,0,0,1-2.22,1.41A2.57,2.57,0,0,1,26,66.91a3.68,3.68,0,0,1,0-4.37,2.55,2.55,0,0,1,2.07-.93A2.3,2.3,0,0,1,30.32,63ZM26.59,63a3.11,3.11,0,0,0,0,3.49,1.87,1.87,0,0,0,1.62.76,1.93,1.93,0,0,0,1.6-.72,2.76,2.76,0,0,0,.54-1.76A2.79,2.79,0,0,0,29.78,63a2.09,2.09,0,0,0-3.19,0Z"/><path class="cls-1" d="M37.27,62.6A4.45,4.45,0,0,1,38,65.08h-5a2.91,2.91,0,0,0,.61,1.79,2,2,0,0,0,1.54.65,2.09,2.09,0,0,0,1.36-.44,2.39,2.39,0,0,0,.66-1.1h.74A2.93,2.93,0,0,1,37,67.46a2.73,2.73,0,0,1-1.93.68A2.67,2.67,0,0,1,33,67.26a3.9,3.9,0,0,1,0-4.68,2.57,2.57,0,0,1,2.1-1A2.54,2.54,0,0,1,37.27,62.6Zm-3.67.27A2.76,2.76,0,0,0,33,64.5h4.27c-.12-1.51-.84-2.27-2.14-2.27A1.82,1.82,0,0,0,33.6,62.87Z"/><path class="cls-1" d="M43.71,63.51H43a1.47,1.47,0,0,0-.52-.94,2,2,0,0,0-1.26-.34,1.89,1.89,0,0,0-1.11.28.82.82,0,0,0,.12,1.5,8,8,0,0,0,1.3.43,6.28,6.28,0,0,1,1.61.57,1.41,1.41,0,0,1,.74,1.25c0,1.25-.83,1.88-2.51,1.88s-2.46-.7-2.61-2.12h.71a1.67,1.67,0,0,0,.58,1.18,2.17,2.17,0,0,0,1.29.32c1.2,0,1.8-.41,1.8-1.22a1,1,0,0,0-.61-.87A9.4,9.4,0,0,0,41.16,65a6.05,6.05,0,0,1-1.51-.55,1.32,1.32,0,0,1-.71-1.19,1.4,1.4,0,0,1,.67-1.21,2.82,2.82,0,0,1,1.63-.44C42.71,61.61,43.53,62.24,43.71,63.51Z"/><path class="cls-1" d="M53.51,62.88a2.41,2.41,0,0,1,.82-1,2,2,0,0,1,1.13-.32,2,2,0,0,1,1.56.61,2.44,2.44,0,0,1,.56,1.7V68h-.72V64a2.1,2.1,0,0,0-.35-1.32,1.57,1.57,0,0,0-1.24-.47,1.41,1.41,0,0,0-1.13.52A1.77,1.77,0,0,0,53.69,64v4H53V64c0-1.2-.51-1.79-1.54-1.79a1.45,1.45,0,0,0-1.17.56,2,2,0,0,0-.47,1.37V68h-.72v-6.2h.72v.93a2,2,0,0,1,1.79-1.1A1.88,1.88,0,0,1,53.51,62.88Z"/><path class="cls-1" d="M63.81,62.6a4.3,4.3,0,0,1,.71,2.48h-5a2.85,2.85,0,0,0,.62,1.79,1.93,1.93,0,0,0,1.53.65A2.14,2.14,0,0,0,63,67.08a2.47,2.47,0,0,0,.66-1.1h.73a2.86,2.86,0,0,1-.83,1.48,2.73,2.73,0,0,1-1.93.68,2.68,2.68,0,0,1-2.09-.88,3.88,3.88,0,0,1,0-4.68,2.85,2.85,0,0,1,4.3,0Zm-3.67.27a2.76,2.76,0,0,0-.64,1.63h4.27c-.12-1.51-.84-2.27-2.15-2.27A1.84,1.84,0,0,0,60.14,62.87Z"/><path class="cls-1" d="M70.23,62.31A2.4,2.4,0,0,1,70.79,64v4H70.1V66.79a3.1,3.1,0,0,1-1,.91,3.24,3.24,0,0,1-1.63.44A2.23,2.23,0,0,1,66,67.69a1.51,1.51,0,0,1-.58-1.24,1.7,1.7,0,0,1,.87-1.58,4.1,4.1,0,0,1,2.17-.49l1.59,0V64a1.57,1.57,0,0,0-1.8-1.76,2.16,2.16,0,0,0-1.24.31,1.48,1.48,0,0,0-.68,1l-.71,0a2,2,0,0,1,.94-1.42,3,3,0,0,1,1.72-.44A2.42,2.42,0,0,1,70.23,62.31Zm-1.71,2.63c-1.57,0-2.35.52-2.35,1.5a1,1,0,0,0,.39.8,1.69,1.69,0,0,0,1.06.32,2.57,2.57,0,0,0,1.7-.65,1.79,1.79,0,0,0,.75-1.35v-.64Z"/><path class="cls-1" d="M77.34,64.16V68h-.72V64.21c0-1.32-.59-2-1.76-2a1.61,1.61,0,0,0-1.25.54A2.19,2.19,0,0,0,73,64.23V68H72.3v-6.2H73v1a2.42,2.42,0,0,1,.84-.87A2.15,2.15,0,0,1,75,61.61C76.57,61.61,77.34,62.46,77.34,64.16Z"/><path class="cls-1" d="M83.15,59.89a2.18,2.18,0,0,1,.64,1.66,2.23,2.23,0,0,1-.44,1.35c-.14.17-.46.47-.95.93a2.45,2.45,0,0,0-.61.68,1.74,1.74,0,0,0-.25.92v.35h-.73v-.35a2.18,2.18,0,0,1,.21-1,4.34,4.34,0,0,1,1.11-1.3c.27-.27.46-.46.56-.58a1.75,1.75,0,0,0-.07-2.24,1.8,1.8,0,0,0-1.32-.46,1.68,1.68,0,0,0-1.44.64,2.43,2.43,0,0,0-.44,1.5H78.7a3,3,0,0,1,.67-2,2.45,2.45,0,0,1,2-.82A2.51,2.51,0,0,1,83.15,59.89Zm-1.54,7a.57.57,0,0,1,.18.44.6.6,0,0,1-.18.43.61.61,0,0,1-.43.17.6.6,0,0,1-.42-1,.53.53,0,0,1,.42-.16A.56.56,0,0,1,81.61,66.94Z"/><path class="cls-1" d="M6,97.59l-.42-.53a14.36,14.36,0,0,0,3.69-4.51H6v-.63H9.59c.24-.58.45-1.18.64-1.78l.66.07a14.42,14.42,0,0,1-.6,1.71h6.16v.63H10a14.54,14.54,0,0,1-1.72,2.74v5.88H7.64V96.05A16.91,16.91,0,0,1,6,97.59Zm6.33-1.73V93.55H13v2.31h2.91v.65H13v3.59h3.47v.63H9v-.63h3.39V96.51H9.49v-.65Z"/><path class="cls-1" d="M20,95l-.46.46a12.14,12.14,0,0,0-1.8-1.78l.45-.43A13.21,13.21,0,0,1,20,95Zm.33,1.79a37.73,37.73,0,0,1-1.84,4.31l-.6-.27a36.39,36.39,0,0,0,1.88-4.25Zm-.12-4.54-.45.45A14.18,14.18,0,0,0,18,90.88l.44-.42A13.12,13.12,0,0,1,20.24,92.28Zm2.29,0a16,16,0,0,0-.67-1.9l.65-.12a18.68,18.68,0,0,1,.64,2h1.52v.64h-.59A22.06,22.06,0,0,1,23.23,97c.58,1,1.07,1.91,1.48,2.77l-.51.37c-.36-.77-.77-1.57-1.23-2.41a.07.07,0,0,0,0,.06,9.9,9.9,0,0,1-2.52,3.35l-.4-.51a9.81,9.81,0,0,0,2.35-3.08l.2-.51c-.5-.86-1.05-1.75-1.67-2.67l.5-.31c.51.78,1,1.52,1.42,2.24a23,23,0,0,0,.66-3.41H20.72v-.64Zm2.95,8.79-.13-.64c.51,0,1,0,1.48,0a.55.55,0,0,0,.59-.62V90.25h.63V100c0,.7-.33,1.06-1,1.06Zm.63-9.81V98.8H25.5V91.26Z"/><path class="cls-1" d="M35.29,96.13v.81a3.65,3.65,0,0,1-1.2,2.77,8.61,8.61,0,0,1-3.69,1.53l-.39-.59a8.48,8.48,0,0,0,3.63-1.38,3.17,3.17,0,0,0,1-2.33v-.81Zm-4-5.41v3.09h-.64V90.72Zm6.86,8.14h-.64V95.25h-5v3.63h-.64V94.65h6.24Zm-4.5-8.67v3.89H33V90.19ZM35,93.67l-.47-.46a7.37,7.37,0,0,0,1.88-3.1l.62.16c-.11.31-.21.61-.33.9h3.69v.61h-4A7.12,7.12,0,0,1,35,93.67ZM36.61,101a.9.9,0,0,1-1-1V97.55h.64V99.8a.49.49,0,0,0,.55.55h2a.89.89,0,0,0,.66-.21,3.37,3.37,0,0,0,.32-1.53l.61.2a3.35,3.35,0,0,1-.48,1.86,1.44,1.44,0,0,1-1,.29Zm2.82-7.15-.42.47a11.8,11.8,0,0,0-2-1.63l.43-.39A11,11,0,0,1,39.43,93.81Z"/><path class="cls-1" d="M42.4,94.39V90.73h5v3.66H45c0,.6-.09,1.14-.13,1.64h2.6a22.53,22.53,0,0,1-.18,3.8c-.12.77-.69,1.15-1.7,1.15l-.8,0-.15-.58.89,0c.66,0,1-.27,1.15-.77a21.53,21.53,0,0,0,.15-3h-2a9.38,9.38,0,0,1-.5,1.9,6.44,6.44,0,0,1-2.18,2.58l-.41-.52a5.53,5.53,0,0,0,2-2.32,6.54,6.54,0,0,0,.44-1.64H41.89V96h2.32c.06-.5.11-1.06.13-1.64Zm4.33-3.06H43v2.46h3.71Zm2.78-.06v7.52h-.65V91.27ZM49.32,101l-.15-.61c.57,0,1.11,0,1.61,0s.6-.23.6-.68V90.25H52V100c0,.72-.35,1.08-1,1.08Z"/><path class="cls-1" d="M59.41,92.85a11.19,11.19,0,0,0,5.27,7.63l-.44.55a11.54,11.54,0,0,1-5.06-6.75A11.05,11.05,0,0,1,54,101l-.39-.57c3.35-2.09,5.07-4.85,5.19-8.3,0-.84,0-1.49,0-2h.66C59.49,91.24,59.46,92.12,59.41,92.85Z"/><path class="cls-1" d="M69.91,100.41h-.62v-.73H66.86v1.06h-.62V92.35h1.08a11.1,11.1,0,0,0,.54-2.15l.66.09a10.05,10.05,0,0,1-.58,2.06h2Zm-.62-4.76V93H66.86v2.68Zm0,3.43V96.23H66.86v2.85Zm6.67.46A1.49,1.49,0,0,1,74.29,101l-1.18,0-.15-.6c.48,0,.9,0,1.26,0a1.05,1.05,0,0,0,1.11-1.07c.1-.72.15-2.83.17-6.32H72a9.59,9.59,0,0,1-1.21,2.1l-.38-.51a10.68,10.68,0,0,0,1.76-4.41l.64.07a15.68,15.68,0,0,1-.56,2.1h3.91C76.12,96.23,76.06,98.63,76,99.54ZM74,97.7l-.52.37a18.47,18.47,0,0,0-2.1-2.68l.53-.33A20.58,20.58,0,0,1,74,97.7Z"/><path class="cls-1" d="M78.1,96.75l-.31-.56a17.33,17.33,0,0,0,5.14-3h.43a17.36,17.36,0,0,0,5.24,3l-.31.57a20.31,20.31,0,0,1-2.39-1.11v.57H80.44v-.56A23.15,23.15,0,0,1,78.1,96.75Zm.27-3.26-.55-.36a8.84,8.84,0,0,0,1.69-3.06l.61.13c-.12.38-.26.74-.4,1.08h3.39v.6H81.27a8.65,8.65,0,0,1,.65,1.22l-.6.22a10.81,10.81,0,0,0-.73-1.44H79.43A10,10,0,0,1,78.37,93.49Zm8.28,7.64H86v-.6H80.3v.6h-.63V97.46h7ZM86,99.93V98.06H80.3v1.87ZM83.15,93.7a14.53,14.53,0,0,1-2.63,1.89h5.33A15.07,15.07,0,0,1,83.15,93.7Zm.46-.7-.54-.35a7.48,7.48,0,0,0,1.4-2.57l.62.13a7.94,7.94,0,0,1-.42,1.07h3.74v.6h-2.1a9.29,9.29,0,0,1,.79,1.38l-.58.23a13.44,13.44,0,0,0-.9-1.61H84.37A7.58,7.58,0,0,1,83.61,93Z"/><path class="cls-1" d="M94.86,97.41v-1h.65v1h4.77V98H96.14a9.07,9.07,0,0,0,4.27,2.19l-.27.56A9.11,9.11,0,0,1,95.54,98h0v3.16h-.65V98h0c-.77,1.11-2.28,2-4.52,2.84l-.35-.58A9.35,9.35,0,0,0,94.22,98H90.05v-.57ZM95,92.29c-.24.33-.47.65-.69.92h5.64v.54h-2a6.35,6.35,0,0,1-1.51,1.51q1.65.43,3.39,1l-.37.51c-1.22-.45-2.46-.83-3.68-1.16a11.75,11.75,0,0,1-5,1l-.36-.53a13.1,13.1,0,0,0,4.52-.63c-.88-.23-1.75-.42-2.63-.59.31-.36.63-.72.91-1.08H90.42v-.54h3.14c.28-.38.54-.75.81-1.11Zm5,.53h-.61v-1H91v1h-.61v-1.6h4.54a6.7,6.7,0,0,0-.53-.93l.69-.12c.16.31.32.65.48,1h4.36Zm-2.76.93H93.86c-.24.3-.46.56-.67.79.79.15,1.6.31,2.41.53A5.45,5.45,0,0,0,97.17,93.75Z"/><path class="cls-1" d="M103.79,94.72a12.24,12.24,0,0,1-1.64,6.4l-.5-.51a11.23,11.23,0,0,0,1.5-5.89V91.21a41.54,41.54,0,0,0,8.28-.84l.31.59a43.49,43.49,0,0,1-7.95.82v1.86h8.73v.64h-8.73Zm7.75,6.43h-.65v-.62h-5.2v.62H105v-5h6.5Zm-.65-1.27V96.79h-5.2v3.09Z"/><path class="cls-1" d="M115.91,99.06a1.36,1.36,0,0,1,.19.75,1.87,1.87,0,0,1-.42,1.23,2.06,2.06,0,0,1-1.09.69v-.48a1.37,1.37,0,0,0,.72-.51,1.14,1.14,0,0,0,.24-.75,1.17,1.17,0,0,1-.24,0,.61.61,0,0,1-.61-.61.59.59,0,0,1,.16-.46.64.64,0,0,1,.48-.16A.68.68,0,0,1,115.91,99.06Z"/><path class="cls-1" d="M126.07,94.47l-.42-.49a10.73,10.73,0,0,0,2.71-3.8l.64.15a12.94,12.94,0,0,1-1,1.92v4.61h-.65V93.15A11.15,11.15,0,0,1,126.07,94.47Zm1.69,3.19a10,10,0,0,1-1.2,3l-.54-.36a8.79,8.79,0,0,0,1.11-2.72Zm3.93-7.34a10.77,10.77,0,0,1-.51,1h4.88v.41a11.1,11.1,0,0,1-.58,1.77l-.59-.16a9.11,9.11,0,0,0,.54-1.42h-4.61a9.85,9.85,0,0,1-1.62,1.89l-.39-.47a9,9,0,0,0,2.26-3.19ZM129.84,101a.91.91,0,0,1-1-1v-2.6h.66v2.47c0,.35.18.53.56.53h2.77a.63.63,0,0,0,.55-.21,3.48,3.48,0,0,0,.29-1.57l.61.21a3.7,3.7,0,0,1-.43,1.9,1.21,1.21,0,0,1-.91.29ZM131.27,94a10.13,10.13,0,0,1-1.61,2.41l-.49-.36a9.74,9.74,0,0,0,1.56-2.31Zm1.26,4.8-.52.37a13.25,13.25,0,0,0-1.42-1.88l.5-.32A16.47,16.47,0,0,1,132.53,98.84Zm-1.35-2-.14-.61c.31,0,.61.05.9.05s.36-.16.36-.47V92.58H133V96c0,.57-.27.87-.8.87Zm4.9-.61-.57.29A16.11,16.11,0,0,0,134,94l.55-.24A16.72,16.72,0,0,1,136.08,96.21Zm.58,3.75-.54.39a21.37,21.37,0,0,0-1.76-2.85l.53-.32A21.49,21.49,0,0,1,136.66,100Z"/><path class="cls-1" d="M137.89,96.31v-.59h10.57v.59h-4.85v1.55h3.55v.6h-3.55v1.83c.6.06,1.34.09,2.2.09s1.87,0,2.57,0l-.18.64h-2.34a11.51,11.51,0,0,1-4-.48,3.92,3.92,0,0,1-1.71-1.72,7.05,7.05,0,0,1-1.81,2.33l-.44-.51a6.9,6.9,0,0,0,2.28-3.75l.63.11a12,12,0,0,1-.42,1.28,3.72,3.72,0,0,0,1.77,1.77,6.59,6.59,0,0,0,.82.2V96.31Zm8.93-5.65v4h-7.2v-4Zm-.65,1.76v-1.2h-5.9v1.2Zm0,.54h-5.9v1.16h5.9Z"/><path class="cls-1" d="M160,90.84v.64h-3.87a7.71,7.71,0,0,1-.67.84v4h-.65V93a15.45,15.45,0,0,1-4.63,2.64l-.39-.53a12.28,12.28,0,0,0,5.61-3.59h-5.06v-.64Zm-1,10.26h-.65v-.6h-6.5v.6h-.65V96.85h7.8Zm-.65-1.22V97.47h-6.5v2.41Zm2-4.65-.48.46a23,23,0,0,0-3.62-2.59l.43-.42A25.79,25.79,0,0,1,160.41,95.23Z"/><path class="cls-1" d="M165,90.43a16,16,0,0,1-1.06,2.51v8.21h-.64V94a14.34,14.34,0,0,1-1.54,2l-.21-.71a14,14,0,0,0,2.85-5.12Zm4,1.67h3.2v.61h-2.9a15.48,15.48,0,0,0,.73,3.34,9.69,9.69,0,0,0,1.86-1.63l.41.52a10.61,10.61,0,0,1-2.07,1.69,10.17,10.17,0,0,0,2.42,3.7l-.4.62a13.28,13.28,0,0,1-3.56-8.24h-.21a12.17,12.17,0,0,1-1.4,2.82v4.6a17.74,17.74,0,0,0,2.46-1l.11.63a25.63,25.63,0,0,1-3.37,1.21l-.13-.58a.36.36,0,0,0,.28-.35V96.37a11.88,11.88,0,0,1-1.82,1.72l-.34-.56a10.25,10.25,0,0,0,3.57-4.82H165V92.1h3.39a15.23,15.23,0,0,0-.6-1.77l.69-.12C168.66,90.75,168.85,91.38,169,92.1Z"/><path class="cls-1" d="M179.34,91v.55A9,9,0,0,1,174.29,98l-.32-.59a8.06,8.06,0,0,0,2.66-1.82,11.79,11.79,0,0,0-1.94-1l-.6.58-.39-.5a9.18,9.18,0,0,0,2.74-4.41l.63.07c-.07.26-.15.53-.24.78Zm-3.22,7.24a13.54,13.54,0,0,1-1.16,3l-.64-.22a12.2,12.2,0,0,0,1.23-2.88Zm-1.05-4.17a13.2,13.2,0,0,1,2,1,9.22,9.22,0,0,0,.81-1.22,11.25,11.25,0,0,0-2-.83A12.07,12.07,0,0,1,175.07,94.1Zm3.62-2.48H176.6c-.14.33-.3.64-.46,1a9.84,9.84,0,0,1,1.94.78A11.19,11.19,0,0,0,178.69,91.62Zm-.14,9.39-.64.15a25.58,25.58,0,0,0-.48-2.76l.61-.13C178.23,99.11,178.4,100,178.55,101Zm3.13-10.75v1.52c0,.38,0,.72-.06,1h2.67v.65h-2.42a5.67,5.67,0,0,0,2.78,3.73l-.35.56A6.45,6.45,0,0,1,181.45,94a6.68,6.68,0,0,1-.58,1.62,5.1,5.1,0,0,1-2.49,2.1l-.35-.53a4.94,4.94,0,0,0,2.38-2,6.28,6.28,0,0,0,.51-1.7h-1.67v-.65H181c0-.34,0-.69.05-1V90.26ZM181.44,101l-.65.15a16.94,16.94,0,0,0-.84-2.87l.62-.13A24,24,0,0,1,181.44,101Zm3-.17-.59.29a21.4,21.4,0,0,0-1.53-2.92l.54-.28A26.52,26.52,0,0,1,184.41,100.8ZM184.2,92l-.48.35a13.24,13.24,0,0,0-1.35-1.69l.47-.29A15.11,15.11,0,0,1,184.2,92Z"/><path class="cls-1" d="M190.94,100.11V98.25h-4v-.61h4V96.47h.65v1.17h4v.61h-4v1.86h4.75v.61H185.9v-.61Zm-3.85-8.91v4.6h-.62V91.2Zm2.17-.9v6.14h-.63V90.3Zm6.12.63v.59a6.65,6.65,0,0,1-1.82,2.79,8.34,8.34,0,0,0,2.85,1.4l-.31.56a8.32,8.32,0,0,1-3-1.56,10.33,10.33,0,0,1-2.87,1.48l-.31-.56a9,9,0,0,0,2.72-1.33A6.64,6.64,0,0,1,191,91.56h-.6v-.63Zm-2.28,3a6.18,6.18,0,0,0,1.64-2.36h-3.2A6.25,6.25,0,0,0,193.1,93.92Z"/><path class="cls-1" d="M197.77,95.89l-.21-.69a14.24,14.24,0,0,0,2.65-5.09l.61.28A16.14,16.14,0,0,1,199.75,93v8.16h-.63V94.11A15.43,15.43,0,0,1,197.77,95.89Zm10.87-4v.63h-7.75v-.63Zm-.84,9.25h-.64v-.66h-4.71v.66h-.65v-4h6Zm-.2-7.47v.58H202v-.58Zm0,1.69V96H202v-.6Zm-.44,4.5V97.73h-4.71v2.13Zm-1.89-8.28-.58.23a8.81,8.81,0,0,0-.66-1.47l.63-.16A9.46,9.46,0,0,1,205.27,91.58Z"/><path class="cls-1" d="M219.12,101.14h-.65v-.82h-6.62v.82h-.65V91.69h2.53a6.08,6.08,0,0,0,.64-1.52l.66.09a6.25,6.25,0,0,1-.62,1.43h4.71Zm-.65-6.84v-2h-6.62v2Zm0,2.63v-2h-6.62v2Zm0,2.77V97.55h-6.62V99.7Z"/><path class="cls-1" d="M231.88,100.18a1.69,1.69,0,0,1-1.5.57h-6.17c-1,0-1.43-.45-1.43-1.35V94.89h7.66V91.53h-7.82v-.62h8.47v4.6h-7.65V99.2c0,.6.34.91,1,.92h5.83a1.2,1.2,0,0,0,1.17-.53,6.53,6.53,0,0,0,.35-2.1l.64.21A5.74,5.74,0,0,1,231.88,100.18Z"/><path class="cls-1" d="M237.91,100.41h-.62v-.73h-2.43v1.06h-.62V92.35h1.08a11.1,11.1,0,0,0,.54-2.15l.66.09a10.05,10.05,0,0,1-.58,2.06h2Zm-.62-4.76V93h-2.43v2.68Zm0,3.43V96.23h-2.43v2.85Zm6.67.46a1.49,1.49,0,0,1-1.67,1.44l-1.18,0-.15-.6c.48,0,.9,0,1.26,0a1.05,1.05,0,0,0,1.11-1.07c.1-.72.15-2.83.17-6.32H240a9.59,9.59,0,0,1-1.21,2.1l-.38-.51a10.68,10.68,0,0,0,1.76-4.41l.64.07a15.68,15.68,0,0,1-.56,2.1h3.91C244.12,96.23,244.06,98.63,244,99.54ZM242,97.7l-.52.37a18.47,18.47,0,0,0-2.1-2.68l.53-.33A20.58,20.58,0,0,1,242,97.7Z"/><path class="cls-1" d="M246.1,96.75l-.31-.56a17.33,17.33,0,0,0,5.14-3h.43a17.36,17.36,0,0,0,5.24,3l-.31.57a20.31,20.31,0,0,1-2.39-1.11v.57h-5.46v-.56A23.15,23.15,0,0,1,246.1,96.75Zm.27-3.26-.55-.36a8.84,8.84,0,0,0,1.69-3.06l.61.13c-.12.38-.26.74-.4,1.08h3.39v.6h-1.84a8.65,8.65,0,0,1,.65,1.22l-.6.22a10.81,10.81,0,0,0-.73-1.44h-1.16A10,10,0,0,1,246.37,93.49Zm8.28,7.64H254v-.6H248.3v.6h-.63V97.46h7Zm-.64-1.2V98.06H248.3v1.87Zm-2.86-6.23a14.53,14.53,0,0,1-2.63,1.89h5.33A15.07,15.07,0,0,1,251.15,93.7Zm.46-.7-.54-.35a7.48,7.48,0,0,0,1.4-2.57l.62.13a7.94,7.94,0,0,1-.42,1.07h3.74v.6h-2.1a9.29,9.29,0,0,1,.79,1.38l-.58.23a13.44,13.44,0,0,0-.9-1.61h-1.25A7.58,7.58,0,0,1,251.61,93Z"/><path class="cls-1" d="M262.86,97.41v-1h.65v1h4.77V98h-4.14a9.07,9.07,0,0,0,4.27,2.19l-.27.56a9.11,9.11,0,0,1-4.6-2.75h0v3.16h-.65V98h-.05c-.77,1.11-2.28,2-4.52,2.84l-.35-.58A9.35,9.35,0,0,0,262.22,98h-4.17v-.57Zm.11-5.12c-.24.33-.47.65-.69.92h5.64v.54h-2.05a6.35,6.35,0,0,1-1.51,1.51q1.65.43,3.39,1l-.37.51c-1.22-.45-2.46-.83-3.68-1.16a11.75,11.75,0,0,1-5,1l-.36-.53a13.1,13.1,0,0,0,4.52-.63c-.88-.23-1.75-.42-2.63-.59.31-.36.63-.72.91-1.08h-2.72v-.54h3.14l.81-1.11Zm5,.53h-.61v-1H259v1h-.61v-1.6h4.54a6.7,6.7,0,0,0-.53-.93l.69-.12c.16.31.32.65.48,1h4.36Zm-2.76.93h-3.31c-.24.3-.46.56-.67.79.79.15,1.6.31,2.41.53A5.45,5.45,0,0,0,265.17,93.75Z"/><path class="cls-1" d="M274.07,91.89a2.37,2.37,0,0,1,.19,3,10.63,10.63,0,0,1-.95.93,2.88,2.88,0,0,0-.6.68,1.77,1.77,0,0,0-.25.92v.35h-.73v-.35a2.18,2.18,0,0,1,.21-1,4.34,4.34,0,0,1,1.11-1.3c.26-.27.45-.46.55-.58a1.64,1.64,0,0,0,.38-1,1.69,1.69,0,0,0-.44-1.22,1.8,1.8,0,0,0-1.32-.46,1.69,1.69,0,0,0-1.45.65,2.32,2.32,0,0,0-.43,1.49h-.72a2.91,2.91,0,0,1,.66-2,2.49,2.49,0,0,1,2-.82A2.54,2.54,0,0,1,274.07,91.89Zm-1.54,7a.57.57,0,0,1,.18.44.6.6,0,0,1-.18.43.61.61,0,0,1-.43.17.6.6,0,0,1-.44-.18.63.63,0,0,1,0-.86.59.59,0,0,1,.44-.16A.56.56,0,0,1,272.53,98.94Z"/><path class="cls-1" d="M286.82,93.76v-.91h-4.77v-.57h4.77v-1c-1.23.07-2.53.14-3.9.2l-.1-.55c3.12-.11,5.86-.3,8.24-.57l.2.54c-1.16.12-2.42.24-3.79.34v1.06h4.8v.57h-4.8v.91h3.75v3.86h-3.75v1h4.39v.54h-4.39v1.09h5v.57H281.87v-.57h4.95V99.14h-4.35V98.6h4.35v-1h-3.74V93.76Zm0,1.66V94.3h-3.1v1.12Zm0,.53h-3.1v1.13h3.1Zm.65-.53h3.13V94.3h-3.13Zm3.13.53h-3.13v1.13h3.13Z"/><path class="cls-1" d="M295.52,97.64a10.49,10.49,0,0,1-1.39,3.18l-.54-.35a9.11,9.11,0,0,0,1.33-3ZM295.26,94a7.67,7.67,0,0,0-.71-1.47l.58-.22a10.86,10.86,0,0,1,.72,1.69h1.45A12.8,12.8,0,0,0,298,92.3l.59.2a10.41,10.41,0,0,1-.72,1.53h1.46v.61H297v1.53h2.17v.6H297v3.53a.81.81,0,0,1-.93.9h-.66l-.15-.61c.21,0,.4,0,.59,0s.51-.16.51-.47V96.77H294v-.6h2.34V94.64h-2.51V94Zm1.07-2.73a7.06,7.06,0,0,0-.61-1.13l.67-.13A11.75,11.75,0,0,1,297,91.3h2.32v.63h-5.35V91.3Zm2.72,8.3-.55.22a17.55,17.55,0,0,0-.92-2.26l.55-.14A17.55,17.55,0,0,1,299.05,99.6Zm5.17-8.67a10.67,10.67,0,0,1-3.59.81v2.35h4v.61h-1.33v6.5h-.64V94.7h-2.05v1.58a8.8,8.8,0,0,1-1.35,4.86l-.47-.49A7.85,7.85,0,0,0,300,96.28V91.2a10.09,10.09,0,0,0,3.91-.86Z"/><path class="cls-1" d="M316.06,93.15h-.64V91.78h-8.57v1.43h-.63v-2h4.63a8.68,8.68,0,0,0-.4-1l.67-.1c.13.31.27.67.39,1.06h4.55Zm-8,5.57v.73h-.65v-5.7h3.5V92.44h.65v1.31h3.54v5.67h-.65v-.7h-2.89v2.47h-.65V98.72Zm0-4.34v1.55h2.85V94.38Zm0,3.74h2.85v-1.6H308Zm6.39-3.74h-2.89v1.55h2.89Zm0,3.74v-1.6h-2.89v1.6Z"/><path class="cls-1" d="M317.89,97.55l-.2-.67A11.18,11.18,0,0,0,321,92.62h-3V92h3.68v.55a9,9,0,0,1-1.46,2.64A10.17,10.17,0,0,1,322,96.64l-.36.55a9.12,9.12,0,0,0-1.46-1.32v5.28h-.64V96A16,16,0,0,1,317.89,97.55Zm2.62-5.84-.57.21a11,11,0,0,0-.75-1.65l.61-.16A10.68,10.68,0,0,1,320.51,91.71Zm5,.58V94.6a9.18,9.18,0,0,1-.9,4.27,5.68,5.68,0,0,1-2.78,2.34l-.37-.58a5.29,5.29,0,0,0,2.69-2.23,9.23,9.23,0,0,0,.74-3.8V92.29Zm2.19,5H327V91.35h-3.65v5.94h-.65V90.73h5Zm-1.3,3.67c-.61,0-.91-.31-.91-.94V97.28h.65v2.61c0,.3.14.46.44.46h.84a.52.52,0,0,0,.44-.19,4.24,4.24,0,0,0,.23-1.47l.6.21a4,4,0,0,1-.37,1.78,1,1,0,0,1-.78.28Z"/><path class="cls-1" d="M339.52,101.09h-.64v-.83h-7.44v.83h-.65V92.22h4v-2h.65v2h4Zm-4.69-5.25v-3h-3.39v3Zm0,3.79V96.45h-3.39v3.18Zm.65-3.79h3.4v-3h-3.4Zm3.4,3.79V96.45h-3.4v3.18Z"/><path class="cls-1" d="M342.05,101l-.13-.6.9,0q.54,0,.54-.57V96.76c-.52.22-1.05.41-1.59.58l-.16-.64c.6-.17,1.18-.36,1.75-.57v-3h-1.53v-.64h1.53V90.22H344v2.26h1.34v.64H344v2.73q.71-.33,1.38-.72v.64a14.89,14.89,0,0,1-1.38.7V100a.87.87,0,0,1-1,1Zm6.73-9V90.24h.65V92h2.93v.62h-2.93v2.14h2.45v.59a8.26,8.26,0,0,1-2.18,3.5,12.06,12.06,0,0,0,3,1.75l-.33.53a12.5,12.5,0,0,1-3.13-1.89,11.29,11.29,0,0,1-3.5,1.91l-.32-.55a10.79,10.79,0,0,0,3.36-1.77,7.59,7.59,0,0,1-2.1-3.44h-.65v-.63h2.73V92.64h-2.94V92Zm.45,6.44a7.91,7.91,0,0,0,2-3h-3.94A6.85,6.85,0,0,0,349.23,98.46Z"/><path class="cls-1" d="M10.83,109.13v-2.95h.65v2.95h4.75v.61h-4a13.05,13.05,0,0,0,4.37,5.59l-.43.54a14.52,14.52,0,0,1-4.55-6.13h-.12v7.39h-.65v-7.39h-.12A12.61,12.61,0,0,1,6.05,116l-.36-.56a12,12,0,0,0,4.42-5.66h-4v-.61Zm4.29-.91-.52.36a16.24,16.24,0,0,0-1.71-2.06l.51-.32A16.22,16.22,0,0,1,15.12,108.22Z"/><path class="cls-1" d="M28,117.14h-.65v-.54H19v.54h-.65V106.79H28ZM27.32,116v-8.62H19V116ZM22.7,107.8a3.69,3.69,0,0,1-.36.75h3.22V109a4.84,4.84,0,0,1-1.63,1.76,13.48,13.48,0,0,0,2.9,1.06l-.34.5a14,14,0,0,1-3.09-1.22,13.48,13.48,0,0,1-3.49,1.24l-.29-.52a13.06,13.06,0,0,0,3.25-1,7.6,7.6,0,0,1-1.37-1.16,6.82,6.82,0,0,1-1.3,1l-.36-.48a5.24,5.24,0,0,0,2.26-2.46ZM25.6,115l-.21.54a28.63,28.63,0,0,0-4.67-1.38l.27-.49A26,26,0,0,1,25.6,115Zm-.71-6H22l-.14.19a7.43,7.43,0,0,0,1.55,1.23A4.53,4.53,0,0,0,24.89,109.06Zm-.11,4.12-.31.48A12.69,12.69,0,0,0,22,112.44l.3-.45A13.71,13.71,0,0,1,24.78,113.18Z"/><path class="cls-1" d="M29.86,111.84l-.22-.69a14.16,14.16,0,0,0,2.48-5l.59.27a15.53,15.53,0,0,1-.93,2.45v8.24h-.64v-7.08A14.37,14.37,0,0,1,29.86,111.84Zm3-2.58-.41-.48a8.57,8.57,0,0,0,2.94-2.64l.66.15c-.18.26-.36.51-.54.74H38.6v.44a8.81,8.81,0,0,1-1.07,1.17h2.35v2.48H36.27a.25.25,0,0,0,0,.07A6.11,6.11,0,0,1,37.48,113a7.26,7.26,0,0,0,2.2-1.42l.42.46a9.31,9.31,0,0,1-1.33,1,7,7,0,0,0,1.92,3l-.43.52a8.53,8.53,0,0,1-2-3.31l-.59.27a6.22,6.22,0,0,1,.23,1.38,2.93,2.93,0,0,1-.37,1.68,1.91,1.91,0,0,1-1.17.51h-.73l-.2-.59h.85a1,1,0,0,0,.71-.35,2.22,2.22,0,0,0,.26-1.26c0-.22,0-.44-.06-.64A11.89,11.89,0,0,1,33,116.71l-.34-.55a11.64,11.64,0,0,0,4.43-2.45,5,5,0,0,0-.37-.91,10.36,10.36,0,0,1-3.71,2l-.31-.56a10,10,0,0,0,3.75-1.94,6.14,6.14,0,0,0-.6-.73A5.74,5.74,0,0,1,33,113.06l-.25-.55a5.34,5.34,0,0,0,2.78-1.39H33.42v-2.24Zm5-1.7H35a10.66,10.66,0,0,1-1.24,1.08h2.93A11.48,11.48,0,0,0,37.82,107.56Zm-1.32,1.63H34.06v1.38h1.87A4.2,4.2,0,0,0,36.5,109.19Zm2.75,0H37.13a5.24,5.24,0,0,1-.5,1.38h2.62Z"/><path class="cls-1" d="M42.07,117l-.14-.61.92,0a.43.43,0,0,0,.48-.48v-3.2a15.14,15.14,0,0,1-1.47.6l-.17-.65a12.8,12.8,0,0,0,1.64-.6v-3H41.82v-.64h1.51v-2.26H44v2.26h1.31v.64H44v2.67c.43-.22.85-.47,1.26-.73v.65q-.62.39-1.26.72v3.69a.79.79,0,0,1-.9.89Zm4.28-6.65v-3.69h5.21v3.69H47.77a9,9,0,0,1-.44.94h4.84A41,41,0,0,1,52,116a1.38,1.38,0,0,1-.53,1,4,4,0,0,1-1.63.22h-.43l-.18-.54.78,0a1.85,1.85,0,0,0,1.11-.24,1.42,1.42,0,0,0,.33-.83c0-.42.08-1.67.12-3.73H47a7.71,7.71,0,0,1-1.86,1.83l-.32-.53a6.24,6.24,0,0,0,2.39-2.79Zm.45,2.56v2.4h3.27v.55H46.2v-3ZM51,107.2H47v1.08h4Zm-4,2.63h4v-1H47Zm.6,4.91-.34-.43a3.79,3.79,0,0,0,1.66-2l.56.09a5,5,0,0,1-.36.81,9.45,9.45,0,0,1,1.74,1.2l-.31.48a8.27,8.27,0,0,0-1.71-1.25A4.55,4.55,0,0,1,47.57,114.74Z"/><path class="cls-1" d="M58.11,111.14v2.28H56.9v1h1.38v.51H56.9v1.18c.58-.1,1.13-.21,1.66-.33v.54c-1.27.29-2.76.56-4.47.83l-.16-.57.71-.09V114h.54v2.37l1.15-.18v-2.77H54.56v-2.28Zm5.56-4.68V107h-4.2v.81h4.61v1.89h-.63V108.3h-4v2.29h-.62V108.3h-4v1.39h-.62V107.8h4.61V107H54.64v-.53Zm-6.11,5.17H55.12v1.3h2.44Zm.52-1.66v.38H55.63V110Zm0-1v.38H55.64V109Zm3.1,1.76a3.67,3.67,0,0,1-.36.6h2.92v.38a5.6,5.6,0,0,1-1.68,1.54,12.07,12.07,0,0,0,2.66.75l-.33.48a11.44,11.44,0,0,1-2.89-.91,13.43,13.43,0,0,1-2.83,1l-.36-.46a16.92,16.92,0,0,0,2.64-.89,5.52,5.52,0,0,1-1.15-.94,7.91,7.91,0,0,1-1,.61l-.36-.44a4.68,4.68,0,0,0,2.22-1.88Zm2.47,6.43h-.58v-.44h-3v.44h-.58v-2.62h4.18Zm-.58-.94v-1.19h-3v1.19ZM61.51,113a6,6,0,0,0,1.56-1.18H60.43l-.23.21A5.19,5.19,0,0,0,61.51,113Zm1.15-4v.38H60.23V109Zm0,1v.38H60.23V110Z"/><path class="cls-1" d="M69.91,116.41h-.62v-.73H66.86v1.06h-.62v-8.39h1.08a11.1,11.1,0,0,0,.54-2.15l.66.09a10.05,10.05,0,0,1-.58,2.06h2Zm-.62-4.76V109H66.86v2.68Zm0,3.43v-2.85H66.86v2.85Zm6.67.46A1.49,1.49,0,0,1,74.29,117l-1.18,0-.15-.6c.48,0,.9,0,1.26,0a1.05,1.05,0,0,0,1.11-1.07c.1-.72.15-2.83.17-6.32H72a9.59,9.59,0,0,1-1.21,2.1l-.38-.51a10.68,10.68,0,0,0,1.76-4.41l.64.07a15.68,15.68,0,0,1-.56,2.1h3.91C76.12,112.23,76.06,114.63,76,115.54ZM74,113.7l-.52.37a18.47,18.47,0,0,0-2.1-2.68l.53-.33A20.58,20.58,0,0,1,74,113.7Z"/><path class="cls-1" d="M81.79,112.39A10.83,10.83,0,0,0,83,108.61H80.44A9.87,9.87,0,0,1,78.11,112l-.44-.55a10,10,0,0,0,2.83-5.26l.64.12a15.22,15.22,0,0,1-.46,1.65h2.95v.57a10.5,10.5,0,0,1-5.29,8.25l-.44-.55a10.38,10.38,0,0,0,3.58-3.33,9.18,9.18,0,0,0-2-1.38l.35-.52A10.53,10.53,0,0,1,81.79,112.39Zm3.77-6.17v3.67a39.53,39.53,0,0,1,3.1,2.58l-.4.59a32.9,32.9,0,0,0-2.7-2.45v6.53h-.65V106.22Z"/><path class="cls-1" d="M90,113.59l-.42-.53a14.36,14.36,0,0,0,3.69-4.51H90v-.63h3.57c.24-.58.45-1.18.64-1.78l.66.07a14.42,14.42,0,0,1-.6,1.71h6.16v.63H94a14.54,14.54,0,0,1-1.72,2.74v5.88h-.65v-5.12A16.91,16.91,0,0,1,90,113.59Zm6.33-1.73v-2.31H97v2.31h2.91v.65H97v3.59h3.47v.63H93v-.63h3.39v-3.59H93.49v-.65Z"/><path class="cls-1" d="M103.38,109.13v-2.77H104v2.77h2.66v-2.89h.65v2.89H110v-2.89h.64v2.89h1.89v.63h-1.89v3.78H106.7v-3.78H104V116h8.08v.65h-8.74v-6.9h-1.61v-.63Zm4,3.76H110v-3.13h-2.65Z"/><path class="cls-1" d="M123.26,106.73v4.59h-2.42a7.71,7.71,0,0,0,3.82,2.4l-.27.58a8.39,8.39,0,0,1-4.22-3h-2a9,9,0,0,1-4.15,2.89l-.36-.56a8.53,8.53,0,0,0,3.85-2.33H115.1v-4.59Zm-5.49,6a6.44,6.44,0,0,1-.41,2.39,4.34,4.34,0,0,1-2.47,2.1l-.42-.53a4.13,4.13,0,0,0,2.23-1.73,5.19,5.19,0,0,0,.42-2.23Zm1.06-4v-1.41h-3.09v1.41Zm0,.56h-3.09v1.46h3.09Zm.65-.56h3.14v-1.41h-3.14Zm3.14.56h-3.14v1.46h3.14Zm-1.23,3.42v4.46h-.66v-4.46Z"/><path class="cls-1" d="M127.91,115.06a1.36,1.36,0,0,1,.19.75,1.87,1.87,0,0,1-.42,1.23,2.06,2.06,0,0,1-1.09.69v-.48a1.37,1.37,0,0,0,.72-.51,1.14,1.14,0,0,0,.24-.75,1.17,1.17,0,0,1-.24,0,.61.61,0,0,1-.61-.61.59.59,0,0,1,.16-.46.64.64,0,0,1,.48-.16A.68.68,0,0,1,127.91,115.06Z"/><path class="cls-1" d="M147.29,112.5c-.73.25-1.5.48-2.31.68v2.87q0,.93-1,.93h-1.32l-.15-.61c.44,0,.86,0,1.24,0s.58-.18.58-.53v-2.54c-.81.18-1.64.33-2.5.48l-.09-.64c.91-.14,1.77-.31,2.59-.5v-2.51h-2.57v-.62h2.57v-1.89c-.68.15-1.37.27-2.1.36l-.14-.62a17.73,17.73,0,0,0,4.57-1.07l.23.61a18.15,18.15,0,0,1-1.92.58v2h3.15c-.09-1-.12-2.1-.12-3.33h.64c0,1.26,0,2.37.11,3.33h3.78v.62h-3.73a15,15,0,0,0,.36,2.32,8.46,8.46,0,0,0,.29,1,12.15,12.15,0,0,0,1.65-2.55l.57.3a12.2,12.2,0,0,1-2,2.94,6.71,6.71,0,0,0,.6,1.2c.4.6.74.9,1,.9s.54-.74.75-2.15l.57.31c-.28,1.68-.69,2.53-1.22,2.53s-1-.37-1.51-1.09a6.7,6.7,0,0,1-.68-1.22,9.55,9.55,0,0,1-3.05,1.9l-.36-.55a8.83,8.83,0,0,0,3.15-2c-.15-.43-.28-.89-.4-1.39a17.63,17.63,0,0,1-.38-2.45H145v2.35c.82-.21,1.59-.44,2.31-.68Zm4.88-4.32-.46.46a14.58,14.58,0,0,0-2.18-1.84l.44-.42A14.44,14.44,0,0,1,152.17,108.18Z"/><path class="cls-1" d="M157.12,106.43a16.92,16.92,0,0,1-1.23,2.73v8h-.65v-7a14.07,14.07,0,0,1-1.43,1.74l-.21-.67a13.56,13.56,0,0,0,2.93-5.09Zm1.09,1.81v8.9h-.65v-8.9Zm1.74-.12-.52.36a14.06,14.06,0,0,0-1.36-2l.51-.31A14.23,14.23,0,0,1,160,108.12Zm1.87,8.95-.18-.63,1.22,0c.38,0,.59-.24.59-.72v-8.06h-3v-.64h3.67v8.87a1,1,0,0,1-1.11,1.15Z"/><path class="cls-1" d="M171.12,106.18a5.69,5.69,0,0,1-.41,1.09h3.6v5.47a8,8,0,0,0,1.58-2.39l.55.35a10.27,10.27,0,0,1-2.13,2.88v2.62c0,.64-.29,1-.85,1h-1.3l-.17-.62,1.26,0c.27,0,.41-.17.41-.51v-1.94c-.31.24-.61.45-.91.65a18.62,18.62,0,0,1-6.23,2.12l-.29-.59q4.72-.84,6.83-2.45l.38-.31h-7.29v-.62h1.5v-5.66H170a6.44,6.44,0,0,0,.41-1.19Zm2.54,3v-1.29h-5.37v1.29Zm0,1.81v-1.24h-5.37V111Zm0,2v-1.38h-5.37v1.38Z"/><path class="cls-1" d="M180.78,106.3c-.12.64-.25,1.26-.4,1.83h2.73v.58A13.86,13.86,0,0,1,181.2,114a4,4,0,0,0,1,1.18,8.22,8.22,0,0,0,4.62,1.06c.56,0,1.15,0,1.75-.06l-.13.68h-1.31c-2.44,0-4.21-.41-5.3-1.2a4.53,4.53,0,0,1-1-1.13,9.35,9.35,0,0,1-2.66,2.44l-.35-.61a8.66,8.66,0,0,0,2.63-2.45,13.31,13.31,0,0,1-1.13-3,8.92,8.92,0,0,1-1.09,1.67l-.45-.54a12.34,12.34,0,0,0,2.37-5.85Zm.05,7.08a13.51,13.51,0,0,0,1.64-4.64H180.2a12.4,12.4,0,0,1-.49,1.34A15,15,0,0,0,180.83,113.38Zm4.76-7.12v3.06a32.56,32.56,0,0,1,3,2.52l-.37.57a32.73,32.73,0,0,0-2.66-2.42v5.25h-.65v-9Z"/><path class="cls-1" d="M193.91,116.41h-.63v-.73h-2.42v1.06h-.62v-8.39h1.08a11.1,11.1,0,0,0,.54-2.15l.66.09a11.5,11.5,0,0,1-.58,2.06h2Zm-.63-4.76V109h-2.42v2.68Zm0,3.43v-2.85h-2.42v2.85Zm6.67.46a1.49,1.49,0,0,1-1.67,1.44l-1.17,0-.16-.6c.48,0,.9,0,1.26,0,.65,0,1-.36,1.12-1.07s.14-2.83.17-6.32H196a10,10,0,0,1-1.21,2.1l-.39-.51a10.69,10.69,0,0,0,1.77-4.41l.63.07a14.31,14.31,0,0,1-.55,2.1h3.91C200.12,112.23,200.06,114.63,200,115.54ZM198,113.7l-.51.37a19.2,19.2,0,0,0-2.1-2.68l.53-.33A20.39,20.39,0,0,1,198,113.7Z"/><path class="cls-1" d="M212,117.14h-.64v-.54H203v.54h-.64V106.79H212Zm-.64-1.13v-8.62H203V116Zm-4.62-8.21a5.17,5.17,0,0,1-.36.75h3.21V109a4.68,4.68,0,0,1-1.63,1.76,13.48,13.48,0,0,0,2.9,1.06l-.33.5a14.31,14.31,0,0,1-3.1-1.22,13.21,13.21,0,0,1-3.49,1.24l-.28-.52a13.06,13.06,0,0,0,3.25-1,7.27,7.27,0,0,1-1.37-1.16,6.59,6.59,0,0,1-1.31,1l-.36-.48a5.26,5.26,0,0,0,2.27-2.46Zm2.9,7.24-.21.54a28.63,28.63,0,0,0-4.67-1.38l.26-.49A25.89,25.89,0,0,1,209.6,115Zm-.72-6H206l-.14.19a7.37,7.37,0,0,0,1.54,1.23A4.44,4.44,0,0,0,208.88,109.06Zm-.11,4.12-.31.48a12.18,12.18,0,0,0-2.52-1.22l.3-.45A13.12,13.12,0,0,1,208.77,113.18Z"/><path class="cls-1" d="M213.85,111.84l-.21-.69a14.33,14.33,0,0,0,2.48-5l.59.27a15.55,15.55,0,0,1-.94,2.45v8.24h-.63v-7.08A14.44,14.44,0,0,1,213.85,111.84Zm3-2.58-.41-.48a8.66,8.66,0,0,0,2.94-2.64l.66.15c-.18.26-.36.51-.54.74h3.13v.44a8.81,8.81,0,0,1-1.07,1.17h2.35v2.48h-3.61l-.05.07a6.34,6.34,0,0,1,1.26,1.82,7.26,7.26,0,0,0,2.2-1.42l.42.46a9.41,9.41,0,0,1-1.34,1,7.11,7.11,0,0,0,1.92,3l-.43.52a8.79,8.79,0,0,1-2-3.31l-.58.27a5.68,5.68,0,0,1,.22,1.38,2.85,2.85,0,0,1-.37,1.68,1.85,1.85,0,0,1-1.16.51h-.73l-.21-.59h.85a1,1,0,0,0,.71-.35,2.13,2.13,0,0,0,.27-1.26c0-.22,0-.44-.06-.64a11.94,11.94,0,0,1-4.23,2.41l-.33-.55a11.59,11.59,0,0,0,4.42-2.45,3.86,3.86,0,0,0-.37-.91,10.22,10.22,0,0,1-3.7,2l-.32-.56a10.1,10.1,0,0,0,3.76-1.94,7.29,7.29,0,0,0-.6-.73,5.78,5.78,0,0,1-2.89,1.45l-.25-.55a5.34,5.34,0,0,0,2.78-1.39h-2.06v-2.24Zm5-1.7H219a11.66,11.66,0,0,1-1.25,1.08h2.94A11.48,11.48,0,0,0,221.82,107.56Zm-1.32,1.63h-2.45v1.38h1.87A4,4,0,0,0,220.5,109.19Zm2.74,0h-2.12a5.23,5.23,0,0,1-.49,1.38h2.61Z"/><path class="cls-1" d="M227.38,109.13v-2.77H228v2.77h2.66v-2.89h.65v2.89H234v-2.89h.63v2.89h1.9v.63h-1.9v3.78H230.7v-3.78H228V116h8.08v.65h-8.74v-6.9h-1.61v-.63Zm4,3.76H234v-3.13h-2.65Z"/><path class="cls-1" d="M247.26,106.73v4.59h-2.43a7.79,7.79,0,0,0,3.83,2.4l-.28.58a8.48,8.48,0,0,1-4.22-3h-2a9,9,0,0,1-4.16,2.89l-.35-.56a8.59,8.59,0,0,0,3.85-2.33H239.1v-4.59Zm-5.5,6a6.24,6.24,0,0,1-.41,2.39,4.31,4.31,0,0,1-2.47,2.1l-.41-.53a4.17,4.17,0,0,0,2.23-1.73,5.34,5.34,0,0,0,.42-2.23Zm1.07-4v-1.41h-3.09v1.41Zm0,.56h-3.09v1.46h3.09Zm.65-.56h3.14v-1.41h-3.14Zm3.14.56h-3.14v1.46h3.14Zm-1.23,3.42v4.46h-.66v-4.46Z"/><path class="cls-1" d="M251.58,114.31a8.29,8.29,0,0,1-1.2,2.48l-.56-.36a6.86,6.86,0,0,0,1.11-2.25Zm-1-6.74V107h4.25a7.33,7.33,0,0,0-.42-.79l.7-.12c.14.26.28.58.42.91h4.28v.58h-2l-.54,1.11h3.13v.58H250v-.58h3l-.45-1.11Zm8.34,2.58v3.39h-7.46v-3.39Zm-.64,1.44v-.93h-6.17v.93Zm0,.5h-6.17V113h6.17ZM253.86,117c-.72,0-1.08-.35-1.08-1v-1.62h.65v1.48c0,.38.2.57.62.57h2.6a.83.83,0,0,0,.6-.17c.17-.14.28-.54.33-1.21l.61.21a2.36,2.36,0,0,1-.47,1.52,1.44,1.44,0,0,1-.93.24Zm2.69-8.28.54-1.11H253.2l.44,1.11Zm-.16,6.64-.54.38a13.63,13.63,0,0,0-1.22-1.45l.54-.35A12.91,12.91,0,0,1,256.39,115.32Zm4.15.93-.53.38a15.92,15.92,0,0,0-1.59-2.18l.52-.33A15.46,15.46,0,0,1,260.54,116.25Z"/><path class="cls-1" d="M265.16,115.94h-.61v-.78h-1.68v1.06h-.62v-9h2.91Zm-.61-1.37v-6.69h-1.68v6.69Zm4.91-3.15v5.75h-.64v-5.75h-.08a9.94,9.94,0,0,1-2.84,4.69l-.34-.55a9.08,9.08,0,0,0,2.7-4.14h-2.35v-.63h2.91V108.6h-2.48V108h2.48v-1.79h.64V108h2.48v.62h-2.48v2.19h2.88v.63H270a9.76,9.76,0,0,0,2.71,4.11l-.42.52a11.19,11.19,0,0,1-2.76-4.63Z"/><path class="cls-1" d="M277.08,107.17a6.37,6.37,0,0,0-.64-1l.65-.12a7.55,7.55,0,0,1,.61,1.1h2.89a4,4,0,0,0,.57-1.15l.62.09a3.82,3.82,0,0,1-.55,1.06h2.66v.57h-4.62a8.05,8.05,0,0,1-.27,1h4.26v.55h-4.47a9,9,0,0,1-.49,1h6.22v.56H278a7,7,0,0,1-.79,1h6v5.37h-.64v-.51h-5.69v.51h-.63V112.7a11.21,11.21,0,0,1-2.28,1.45l-.3-.57a9,9,0,0,0,3.63-2.79h-3.45v-.56h3.83a10.26,10.26,0,0,0,.52-1h-3.05v-.55h3.26a7,7,0,0,0,.29-1h-4.21v-.57Zm5.43,5.16h-5.69v.88h5.69Zm-5.69,2.29h5.69v-.91h-5.69Zm5.69.52h-5.69v1h5.69Z"/><path class="cls-1" d="M285.76,112l-.21-.66a14,14,0,0,0,2.93-5.19l.61.27A14.49,14.49,0,0,1,288,109v8.2h-.65v-7.12A14.53,14.53,0,0,1,285.76,112Zm7.35-5.85v4h3.48v.65h-3.48v6.29h-.67v-6.29h-3.38v-.65h3.38v-4Z"/><path class="cls-1" d="M303.09,106.33a18.1,18.1,0,0,1-4.91,6.36l-.45-.53a16.75,16.75,0,0,0,4.67-6Zm5.08,10.4-.61.28q-.27-.63-.54-1.2a69,69,0,0,1-7.75.82l-.18-.65a2.54,2.54,0,0,0,.6-.42,34.62,34.62,0,0,0,5.18-7.22l.65.32q-3.34,5.57-5.22,7.27c2.25-.16,4.4-.4,6.43-.71a28.24,28.24,0,0,0-1.77-3.07l.63-.2A30.06,30.06,0,0,1,308.17,116.73Z"/><path class="cls-1" d="M314.06,107.89a2.18,2.18,0,0,1,.65,1.66,2.24,2.24,0,0,1-.45,1.35,12.33,12.33,0,0,1-.95.93,2.88,2.88,0,0,0-.6.68,1.77,1.77,0,0,0-.25.92v.35h-.74v-.35a2.18,2.18,0,0,1,.22-1,4.42,4.42,0,0,1,1.1-1.3c.27-.27.46-.46.56-.58a1.64,1.64,0,0,0,.38-1,1.73,1.73,0,0,0-.44-1.22,1.81,1.81,0,0,0-1.32-.46,1.69,1.69,0,0,0-1.45.65,2.32,2.32,0,0,0-.44,1.49h-.72a2.91,2.91,0,0,1,.66-2,2.82,2.82,0,0,1,3.79-.17Zm-1.53,7a.57.57,0,0,1,.18.44.6.6,0,0,1-.18.43.64.64,0,0,1-.88,0,.63.63,0,0,1,0-.86.61.61,0,0,1,.45-.16A.58.58,0,0,1,312.53,114.94Z"/></g></g></svg>