<svg xmlns="http://www.w3.org/2000/svg" viewBox="0 0 361.67 41.54"><defs><style>.cls-1{fill:none;stroke:#fff;stroke-miterlimit:10;stroke-width:2px;}</style></defs><g id="图层_2" data-name="图层 2"><g id="图层_4" data-name="图层 4"><path class="cls-1" d="M1,1.8H17.71V9.39H10.87v7.2H17V23.8H10.87V39.74H1Z"/><path class="cls-1" d="M30,1.8V39.74H20.1V1.8Z"/><path class="cls-1" d="M56,1.8V39.74H47.31L42.18,22.49V39.74H33.93V1.8h8.25l5.53,17.08V1.8Z"/><path class="cls-1" d="M59.92,1.8H67.3A46.59,46.59,0,0,1,77,2.45,7.41,7.41,0,0,1,80.8,4.61,6.8,6.8,0,0,1,82.45,8a52.35,52.35,0,0,1,.32,7.23V28.47a30.86,30.86,0,0,1-.48,6.83A5.19,5.19,0,0,1,80.62,38a7.1,7.1,0,0,1-3,1.36,27.32,27.32,0,0,1-5.29.38H59.92Zm9.87,6.49v25c1.42,0,2.3-.29,2.62-.86s.5-2.12.5-4.65V13a19.36,19.36,0,0,0-.17-3.3A1.57,1.57,0,0,0,72,8.63,4.8,4.8,0,0,0,69.79,8.29Z"/><path class="cls-1" d="M115.94,1.8,108.74,26V39.74H99.6V26L92.66,1.8h9.07q2.11,11.1,2.39,15,.82-6.08,2.75-14.95Z"/><path class="cls-1" d="M140.17,24q0,5.72-.27,8.09a9.07,9.07,0,0,1-5.52,7.37,13.81,13.81,0,0,1-5.62,1.06,14.15,14.15,0,0,1-5.47-1,9.13,9.13,0,0,1-5.67-7.32c-.18-1.56-.28-4.3-.28-8.2v-6.5q0-5.71.27-8.09a9.1,9.1,0,0,1,5.52-7.38,14,14,0,0,1,5.63-1,14.18,14.18,0,0,1,5.47,1,9.1,9.1,0,0,1,5.66,7.32,79.46,79.46,0,0,1,.28,8.2ZM130.3,11.55A11.62,11.62,0,0,0,130,8.16a1.17,1.17,0,0,0-1.21-.74,1.34,1.34,0,0,0-1.18.6,8.53,8.53,0,0,0-.41,3.53V29.27a17.29,17.29,0,0,0,.27,4.07,1.17,1.17,0,0,0,1.25.78,1.21,1.21,0,0,0,1.29-.89A18.74,18.74,0,0,0,130.3,29Z"/><path class="cls-1" d="M166.28,1.8V27.16a43.52,43.52,0,0,1-.28,6.05,8.26,8.26,0,0,1-1.66,3.59,8.64,8.64,0,0,1-3.65,2.79,13.75,13.75,0,0,1-5.33.95,15,15,0,0,1-6-1.13,9,9,0,0,1-3.89-2.93,8,8,0,0,1-1.52-3.8q-.24-2-.24-8.43V1.8h9.87V30.25a11.27,11.27,0,0,0,.27,3.18,1.05,1.05,0,0,0,1.09.69,1.14,1.14,0,0,0,1.2-.76,14.2,14.2,0,0,0,.27-3.6V1.8Z"/><path class="cls-1" d="M170.1,1.8h7a53.27,53.27,0,0,1,9.45.54,6.46,6.46,0,0,1,4,2.75c1,1.48,1.56,3.83,1.56,7.07,0,2.95-.36,4.93-1.1,5.95s-2.18,1.62-4.33,1.83a7.38,7.38,0,0,1,3.93,1.94,6,6,0,0,1,1.26,2.24,36.21,36.21,0,0,1,.24,5.61v10H183V27.13c0-2-.16-3.29-.48-3.77s-1.16-.73-2.52-.73V39.74H170.1ZM180,8.29v8.44a4.36,4.36,0,0,0,2.33-.46c.45-.31.67-1.29.67-3V11.22a3.18,3.18,0,0,0-.65-2.37A3.68,3.68,0,0,0,180,8.29Z"/><path class="cls-1" d="M221.47,1.8l5.64,37.94H217l-.53-6.82H213l-.59,6.82h-10.2l5-37.94Zm-5.23,24.4q-.75-6.45-1.5-15.94-1.52,10.89-1.9,15.94Z"/><path class="cls-1" d="M250.82,1.8V39.74h-8.65L237,22.49V39.74h-8.25V1.8H237l5.53,17.08V1.8Z"/><path class="cls-1" d="M275.69,13.28h-9.17V10.47A5.46,5.46,0,0,0,266.17,8,1.28,1.28,0,0,0,265,7.42a1.5,1.5,0,0,0-1.35.73,4.25,4.25,0,0,0-.45,2.2,6.27,6.27,0,0,0,.51,2.86,7.46,7.46,0,0,0,2.79,2.33q6.58,3.9,8.3,6.41T276.51,30a14.28,14.28,0,0,1-.95,6,7.46,7.46,0,0,1-3.67,3.22,14.46,14.46,0,0,1-6.33,1.3A14.15,14.15,0,0,1,258.8,39a7.35,7.35,0,0,1-3.67-3.82,19.58,19.58,0,0,1-.86-6.59V26.15h9.16v4.62a6,6,0,0,0,.39,2.74,1.49,1.49,0,0,0,1.37.61,1.6,1.6,0,0,0,1.46-.78,4.39,4.39,0,0,0,.48-2.29c0-2.24-.3-3.7-.91-4.39a30.27,30.27,0,0,0-4.62-3.44,46.12,46.12,0,0,1-4.87-3.54,8.15,8.15,0,0,1-2-3.05,13.23,13.23,0,0,1-.79-5c0-2.9.37-5,1.11-6.37a7.54,7.54,0,0,1,3.6-3.15,14.34,14.34,0,0,1,6-1.14,15.59,15.59,0,0,1,6.55,1.24,6.86,6.86,0,0,1,3.59,3.13,16.7,16.7,0,0,1,.88,6.41Z"/><path class="cls-1" d="M316.75,1.8l-4.39,37.94H300q-1.69-8.75-3-19.9-.58,4.79-2.75,19.9H282.05L277.63,1.8h9.59l1,13.24,1,12.8q.54-9.94,2.73-26h10.24q.21,1.66,1.08,12.51l1.09,14.44Q305.25,15,307.16,1.8Z"/><path class="cls-1" d="M318.7,1.8h16.45V9.39h-6.59v7.2h6.17V23.8h-6.17v8.35h7.24v7.59H318.7Z"/><path class="cls-1" d="M338.64,1.8h7a53.33,53.33,0,0,1,9.46.54,6.49,6.49,0,0,1,4,2.75c1,1.48,1.56,3.83,1.56,7.07q0,4.43-1.1,5.95t-4.34,1.83a7.38,7.38,0,0,1,3.94,1.94,6,6,0,0,1,1.26,2.24,36.21,36.21,0,0,1,.24,5.61v10h-9.16V27.13c0-2-.16-3.29-.48-3.77s-1.16-.73-2.52-.73V39.74h-9.87Zm9.87,6.49v8.44a4.38,4.38,0,0,0,2.33-.46c.45-.31.67-1.29.67-3V11.22a3.18,3.18,0,0,0-.65-2.37A3.68,3.68,0,0,0,348.51,8.29Z"/></g></g></svg>