<svg xmlns="http://www.w3.org/2000/svg" viewBox="0 0 57 57"><defs><style>.cls-1{fill:#fff;}</style></defs><g id="图层_2" data-name="图层 2"><g id="图层_2-2" data-name="图层 2"><rect class="cls-1" x="16.29" y="24.43" width="8.14" height="8.14"/><rect class="cls-1" x="16.29" y="32.57" width="8.14" height="8.14"/><rect class="cls-1" x="24.43" y="32.57" width="8.14" height="8.14"/><rect class="cls-1" x="32.57" y="32.57" width="8.14" height="8.14"/><rect class="cls-1" x="16.29" y="16.29" width="8.14" height="8.14"/><rect class="cls-1" x="24.43" y="16.29" width="8.14" height="8.14"/><rect class="cls-1" x="32.57" y="16.29" width="8.14" height="8.14"/><rect class="cls-1" x="40.71" y="8.14" width="8.14" height="8.14"/><rect class="cls-1" x="32.57" y="24.43" width="8.14" height="8.14"/><rect class="cls-1" x="8.14" width="8.14" height="8.14"/><rect class="cls-1" x="16.29" width="8.14" height="8.14"/><rect class="cls-1" x="24.43" width="8.14" height="8.14"/><rect class="cls-1" x="32.57" width="8.14" height="8.14"/><rect class="cls-1" x="40.71" width="8.14" height="8.14"/><rect class="cls-1" x="8.14" y="48.86" width="8.14" height="8.14"/><rect class="cls-1" x="16.29" y="48.86" width="8.14" height="8.14"/><rect class="cls-1" x="24.43" y="48.86" width="8.14" height="8.14"/><rect class="cls-1" x="32.57" y="48.86" width="8.14" height="8.14"/><rect class="cls-1" x="40.71" y="48.86" width="8.14" height="8.14"/><rect class="cls-1" y="8.14" width="8.14" height="8.14"/><rect class="cls-1" x="48.86" y="8.14" width="8.14" height="8.14"/><rect class="cls-1" y="16.29" width="8.14" height="8.14"/><rect class="cls-1" x="48.86" y="16.29" width="8.14" height="8.14"/><rect class="cls-1" y="24.43" width="8.14" height="8.14"/><rect class="cls-1" x="48.86" y="24.43" width="8.14" height="8.14"/><rect class="cls-1" y="32.57" width="8.14" height="8.14"/><rect class="cls-1" x="48.86" y="32.57" width="8.14" height="8.14"/><rect class="cls-1" y="40.71" width="8.14" height="8.14"/><rect class="cls-1" x="48.86" y="40.71" width="8.14" height="8.14"/></g></g></svg>