<svg xmlns="http://www.w3.org/2000/svg" viewBox="0 0 51 40.11"><defs><style>.cls-1{fill:#fff;stroke:#000;stroke-miterlimit:10;stroke-width:2px;}</style></defs><g id="图层_2" data-name="图层 2"><g id="图层_4" data-name="图层 4"><polygon class="cls-1" points="44.56 11.89 44.56 6.44 39.11 6.44 39.11 1 33.67 1 33.67 6.44 28.22 6.44 28.22 11.89 22.78 11.89 22.78 6.44 17.33 6.44 17.33 1 11.89 1 11.89 6.44 6.44 6.44 6.44 11.89 1 11.89 1 17.33 6.44 17.33 6.44 22.78 11.89 22.78 11.89 28.22 17.33 28.22 17.33 33.67 22.78 33.67 22.78 39.11 28.22 39.11 28.22 33.67 33.67 33.67 33.67 28.22 39.11 28.22 39.11 22.78 44.56 22.78 44.56 17.33 50 17.33 50 11.89 44.56 11.89"/></g></g></svg>