<svg xmlns="http://www.w3.org/2000/svg" viewBox="0 0 50.14 39"><defs><style>.cls-1{fill:red;}</style></defs><g id="图层_2" data-name="图层 2"><g id="图层_4" data-name="图层 4"><rect class="cls-1" x="11.14" width="5.57" height="5.57"/><rect class="cls-1" x="5.57" y="5.57" width="5.57" height="5.57"/><rect class="cls-1" x="11.14" y="5.57" width="5.57" height="5.57"/><rect class="cls-1" x="16.71" y="5.57" width="5.57" height="5.57"/><rect class="cls-1" x="5.57" y="11.14" width="5.57" height="5.57"/><rect class="cls-1" y="11.14" width="5.57" height="5.57"/><rect class="cls-1" x="44.57" y="11.14" width="5.57" height="5.57"/><rect class="cls-1" x="11.14" y="11.14" width="5.57" height="5.57"/><rect class="cls-1" x="16.71" y="11.14" width="5.57" height="5.57"/><rect class="cls-1" x="5.57" y="16.71" width="5.57" height="5.57"/><rect class="cls-1" x="39" y="5.57" width="5.57" height="5.57"/><rect class="cls-1" x="39" y="11.14" width="5.57" height="5.57"/><rect class="cls-1" x="39" y="16.71" width="5.57" height="5.57"/><rect class="cls-1" x="11.14" y="16.71" width="5.57" height="5.57"/><rect class="cls-1" x="16.71" y="16.71" width="5.57" height="5.57"/><rect class="cls-1" x="11.14" y="22.29" width="5.57" height="5.57"/><rect class="cls-1" x="33.43" width="5.57" height="5.57"/><rect class="cls-1" x="33.43" y="5.57" width="5.57" height="5.57"/><rect class="cls-1" x="33.43" y="11.14" width="5.57" height="5.57"/><rect class="cls-1" x="33.43" y="16.71" width="5.57" height="5.57"/><rect class="cls-1" x="33.43" y="22.29" width="5.57" height="5.57"/><rect class="cls-1" x="16.71" y="22.29" width="5.57" height="5.57"/><rect class="cls-1" x="16.71" y="27.86" width="5.57" height="5.57"/><rect class="cls-1" x="27.86" y="5.57" width="5.57" height="5.57"/><rect class="cls-1" x="27.86" y="11.14" width="5.57" height="5.57"/><rect class="cls-1" x="27.86" y="16.71" width="5.57" height="5.57"/><rect class="cls-1" x="27.86" y="22.29" width="5.57" height="5.57"/><rect class="cls-1" x="27.86" y="27.86" width="5.57" height="5.57"/><rect class="cls-1" x="22.29" y="11.14" width="5.57" height="5.57"/><rect class="cls-1" x="22.29" y="16.71" width="5.57" height="5.57"/><rect class="cls-1" x="22.29" y="22.29" width="5.57" height="5.57"/><rect class="cls-1" x="22.29" y="27.86" width="5.57" height="5.57"/><rect class="cls-1" x="22.29" y="33.43" width="5.57" height="5.57"/></g></g></svg>