<svg xmlns="http://www.w3.org/2000/svg" viewBox="0 0 88.39 47.31"><defs><style>.cls-1{fill:none;stroke:#fff;stroke-width:2px;}</style></defs><g id="图层_2" data-name="图层 2"><g id="图层_2-2" data-name="图层 2"><path class="cls-1" d="M26.24,1.91V45.39H16.33L10.45,25.63V45.39H1V1.91h9.45l6.34,19.58V1.91Z"/><path class="cls-1" d="M56.62,27.37c0,4.37-.11,7.46-.31,9.28A10.38,10.38,0,0,1,50,45.1a16,16,0,0,1-6.44,1.21,16.37,16.37,0,0,1-6.27-1.15,10.46,10.46,0,0,1-6.49-8.39,93.42,93.42,0,0,1-.32-9.4V19.93q0-6.55.31-9.28a10.37,10.37,0,0,1,6.32-8.44A16,16,0,0,1,43.54,1a16.37,16.37,0,0,1,6.27,1.14,10.5,10.5,0,0,1,6.49,8.39,93.56,93.56,0,0,1,.32,9.4ZM45.31,13.08A13.73,13.73,0,0,0,45,9.2a1.35,1.35,0,0,0-1.39-.84A1.54,1.54,0,0,0,42.24,9c-.32.46-.47,1.81-.47,4V33.39a19.69,19.69,0,0,0,.31,4.67,1.34,1.34,0,0,0,1.43.89,1.4,1.4,0,0,0,1.48-1,21.86,21.86,0,0,0,.32-4.86Z"/><path class="cls-1" d="M67.74,36.53v8.86h-8.2V36.53Z"/><path class="cls-1" d="M87.39,1.91V45.39H76.54V22.08A41.31,41.31,0,0,0,76.3,16,2.25,2.25,0,0,0,75,14.47a13.67,13.67,0,0,0-4.84-.53H69.05V8.88q7.88-1.7,12-7Z"/></g></g></svg>