<svg xmlns="http://www.w3.org/2000/svg" viewBox="0 0 86.39 45.31"><defs><style>.cls-1{fill:#fff;}</style></defs><g id="图层_2" data-name="图层 2"><g id="图层_2-2" data-name="图层 2"><path class="cls-1" d="M25.24.91V44.39H15.33L9.45,24.63V44.39H0V.91H9.45l6.34,19.58V.91Z"/><path class="cls-1" d="M55.62,26.37c0,4.37-.11,7.46-.31,9.28A10.38,10.38,0,0,1,49,44.1a16,16,0,0,1-6.44,1.21,16.37,16.37,0,0,1-6.27-1.15,10.46,10.46,0,0,1-6.49-8.39,93.42,93.42,0,0,1-.32-9.4V18.93q0-6.55.31-9.28a10.37,10.37,0,0,1,6.32-8.44A16,16,0,0,1,42.54,0a16.37,16.37,0,0,1,6.27,1.14A10.5,10.5,0,0,1,55.3,9.53a93.56,93.56,0,0,1,.32,9.4ZM44.31,12.08A13.73,13.73,0,0,0,44,8.2a1.35,1.35,0,0,0-1.39-.84A1.54,1.54,0,0,0,41.24,8c-.32.46-.47,1.81-.47,4V32.39a19.69,19.69,0,0,0,.31,4.67,1.34,1.34,0,0,0,1.43.89,1.4,1.4,0,0,0,1.48-1,21.86,21.86,0,0,0,.32-4.86Z"/><path class="cls-1" d="M66.74,35.53v8.86h-8.2V35.53Z"/><path class="cls-1" d="M86.39.91V44.39H75.54V21.08A41.31,41.31,0,0,0,75.3,15,2.25,2.25,0,0,0,74,13.47a13.67,13.67,0,0,0-4.84-.53H68.05V7.88q7.88-1.69,12-7Z"/></g></g></svg>